<?xml version="1.0" encoding="utf-8"?>
<!-- Generator: Adobe Illustrator 15.0.0, SVG Export Plug-In . SVG Version: 6.00 Build 0)  -->
<!DOCTYPE svg PUBLIC "-//W3C//DTD SVG 1.1//EN" "http://www.w3.org/Graphics/SVG/1.1/DTD/svg11.dtd">
<svg version="1.1" id="Layer_1" xmlns="http://www.w3.org/2000/svg" xmlns:xlink="http://www.w3.org/1999/xlink" x="0px" y="0px"
	 width="360px" height="360px" viewBox="0 0 360 360" enable-background="new 0 0 360 360" xml:space="preserve">
<g>
	<g>
		<g enable-background="new    ">
			<g enable-background="new    ">
				<defs>
					<path id="SVGID_1_" enable-background="new    " d="M8.565,180.467c-0.081-4.394,0.103-10.276,0.67-14.635
						c0.513-3.938,1.03-9.213,1.716-13.125c0.745-4.241,1.954-9.86,3.049-14.024c0.986-3.747,2.489-8.696,3.785-12.347
						c1.436-4.043,3.698-9.303,5.314-13.277c1.661-4.087,4.396-9.323,6.649-13.116c3.814-6.423,9.408-14.687,13.843-20.698
						c2.721-3.688,6.708-8.353,9.966-11.574c2.57-2.542,5.883-6.053,8.583-8.455c3.807-3.386,9.062-7.7,13.09-10.82
						c0.325-0.251,8.091-6.238,19.054-12.27c2.572-1.416,6.029-3.26,8.699-4.48c4.3-1.965,10.108-4.426,14.518-6.131
						c0.792-0.306,8.061-3.071,19.347-5.847c3.715-0.914,8.722-1.918,12.491-2.576c4.35-0.76,8.438-1.225,10.88-1.503
						c2.12-0.242,6.877-0.65,9.201-0.766c1.309-0.065,3.054-0.173,4.364-0.207c5.348-0.135,5.348-0.135,8.43-0.118
						c4.056,0.024,12.264,0.236,21.659,1.393c5.039,0.621,8.607,1.239,9.907,1.476c6.845,1.249,10.603,2.187,11.591,2.445
						c2.246,0.586,5.243,1.36,7.471,2.012c2.167,0.634,5.022,1.592,7.175,2.275c2.217,0.703,5.117,1.811,7.278,2.669
						c3.997,1.587,9.228,3.948,13.108,5.8c2.646,1.263,6.046,3.206,8.638,4.58c40.033,22.745,66.419,67.693,66.316,122.814
						c-0.162,86.987-73.588,168.638-154.881,179.57c81.293-10.932,154.719-92.583,154.881-179.57
						c0.103-55.122-26.283-100.07-66.316-122.814c3.953,2.308,9.237,5.404,12.912,8.135c2.761,2.052,6.521,4.687,9.187,6.862
						c3.345,2.731,7.817,6.389,10.833,9.481c2.551,2.616,6.062,6.005,8.496,8.73c2.83,3.167,6.472,7.511,9.038,10.893
						c2.264,2.982,5.151,7.062,7.171,10.214c2.266,3.538,5.16,8.343,7.1,12.069c2.424,4.659,6.48,12.456,10.586,24.525
						c2.512,7.383,4.829,17.561,6.334,25.212c0.835,4.248,1.411,10.008,1.766,14.323c0.331,4.022,0.385,9.408,0.518,13.44
						c0.155,4.745-0.197,11.099-0.854,15.801c-0.55,3.94-1.196,9.214-1.977,13.115c-0.861,4.311-2.25,10.015-3.492,14.231
						c-1.104,3.753-2.784,8.7-4.221,12.339c-1.619,4.104-4.146,9.423-5.956,13.446c-1.587,3.527-4.189,7.999-6.202,11.302
						c-2.352,3.86-5.799,8.811-8.332,12.554c-2.716,4.013-6.93,8.94-10.124,12.583c-4.903,5.592-11.977,12.605-17.692,17.364
						c-4.066,3.386-9.678,7.674-13.97,10.769c-2.798,2.017-6.722,4.424-9.644,6.257c-1.088,0.682-10.738,6.397-19.229,10.075
						c-6.126,2.653-13.068,5.66-24.439,8.839c-7.497,2.096-13.923,3.355-17.993,4.042c-4.503,0.761-7.057,1.051-10.013,1.387
						c-1.726,0.196-5.925,0.569-8.191,0.683c-3.41,0.171-5.289,0.266-7.521,0.273c-1.095,0.004-2.555,0.031-3.649,0.011
						c-4.418-0.083-5.337-0.101-7.327-0.217c-3.914-0.23-11.2-0.659-20.958-2.387c-8.507-1.507-15.295-3.383-18.584-4.367
						c-2.169-0.649-5.061-1.521-7.19-2.288c-3.743-1.349-8.708-3.224-12.376-4.763c-5.513-2.313-12.632-5.945-17.849-8.865
						c-4.62-2.585-10.621-6.34-14.897-9.46c-3.675-2.682-8.628-6.216-12.008-9.262c-2.769-2.496-6.562-5.716-9.223-8.327
						c-3.16-3.103-7.238-7.38-10.163-10.705c-5.061-5.753-10.989-14.116-15.312-20.442c-2.475-3.622-5.232-8.803-7.312-12.666
						c-2.053-3.814-4.584-9.03-6.078-13.095c-2.703-7.359-6.008-17.302-7.884-24.913c-1.485-6.026-2.502-14.271-3.187-20.439
						C8.691,189.897,8.64,184.503,8.565,180.467z"/>
				</defs>
				<clipPath id="SVGID_2_">
					<use xlink:href="#SVGID_1_"  overflow="visible"/>
				</clipPath>
				<g clip-path="url(#SVGID_2_)" enable-background="new    ">
					<path fill="#9F1014" d="M8.565,180.467c0.122,6.641,0.495,26.846,7.189,46.54c8.01,23.566,15.468,34.985,25.13,48.544
						c4.694,6.588,30.477,40.374,77.188,58.598c39.599,15.448,74.385,13.156,96.594,8.513c42.485-8.883,71.622-30.586,88.584-47.229
						c10.257-10.064,19.352-21.559,27.031-34.163c4.03-6.614,8.381-16.024,11.511-23.109c1.794-4.062,3.447-9.771,4.868-13.978
						c2.679-7.926,4.19-19.079,5.469-27.347c0.615-3.979,0.586-9.376,0.829-13.395c0.558-9.184-1.216-22.575-2.068-29.01
						c-2.894-21.844-14.581-49.168-24.21-62.966c-2.466-3.534-5.571-8.389-8.319-11.708c-4.676-5.646-11.051-13.101-16.386-18.129
						c-12.157-11.457-21.957-18.071-32.932-24.479c40.033,22.745,66.419,67.693,66.316,122.814
						c-0.162,86.987-73.588,168.638-154.881,179.57c81.293-10.932,154.719-92.583,154.881-179.57
						c0.103-55.122-26.283-100.07-66.316-122.814c-13.681-7.254-23.109-11.973-43.67-17.336c-3.314-0.865-20.971-5.184-43.157-5.314
						c-31.924-0.187-61.507,7.09-87.93,21.628C54.72,57.896,36.578,88.444,29.749,99.944
						C16.598,122.087,8.085,154.447,8.565,180.467"/>
					<path fill="#9F1014" d="M335.359,159.963c-0.162,86.987-73.588,168.638-154.881,179.57c-0.163,0-0.38-0.001-0.544-0.001
						c-135.87,6.787-210.821-143.315-140.58-221.559c77.854-86.723,230.5-2.498,235.067,100.778
						c3.885,87.854-64.669,110.928-93.943,120.781C261.771,328.602,335.197,246.95,335.359,159.963
						c0.103-55.122-26.283-100.07-66.316-122.814c-2.592-1.374-6.047-3.206-8.638-4.58c-3.907-1.795-9.128-4.171-13.108-5.8
						l-7.278-2.669c-2.577-0.817-6.003-1.937-8.6-2.687l-6.046-1.601c-1.92-0.438-4.474-1.047-6.401-1.449l-5.189-0.996
						c-1.578-0.256-3.678-0.618-5.259-0.852l-4.648-0.625c-1.391-0.152-3.244-0.371-4.638-0.506l-4.333-0.369
						c-1.294-0.081-3.019-0.206-4.314-0.27l-4.188-0.169c-1.258-0.023-2.933-0.079-4.189-0.079l-4.194,0.013
						c-1.271,0.031-2.966,0.026-4.234,0.105l-4.363,0.207c-1.339,0.094-3.126,0.203-4.464,0.315l-4.736,0.451
						c-1.482,0.179-3.461,0.4-4.941,0.598l-5.938,0.905c-15.436,2.901-23.52,5.193-37.608,10.664l-8.748,3.891
						c-11.288,5.813-11.964,6.162-18.469,10.313l-9.284,6.437c-3.98,3.181-9.276,7.441-13.09,10.82l-8.583,8.455
						c-3.022,3.444-7.105,7.995-9.966,11.574l-7.286,10.049c-2.289,3.717-5.429,8.622-7.552,12.437L23.1,113.06
						c-1.613,3.976-3.876,9.235-5.314,13.277l-3.785,12.347c-0.931,4.204-2.303,9.784-3.049,14.024l-1.716,13.125
						c-0.217,4.39-0.646,10.24-0.67,14.635l0.57,13.442c0.807,6.153,1.964,14.354,3.187,20.439l3.432,12.658
						c1.487,4.093,3.347,9.601,5.02,13.621l5.509,11.729c2.174,3.811,4.972,8.954,7.312,12.666l7.289,10.528
						c2.832,3.499,6.533,8.229,9.513,11.601l8.673,9.019c3.522,3.181,8.182,7.468,11.842,10.488l9.388,7.101
						c4.421,2.912,10.339,6.768,14.897,9.46l8.926,4.742c4.156,1.92,9.714,4.447,13.948,6.188l7.352,2.698
						c2.625,0.836,6.118,1.978,8.764,2.743l5.899,1.562c1.869,0.427,4.355,1.021,6.231,1.412l4.88,0.938
						c1.473,0.239,3.435,0.578,4.911,0.796l4.229,0.568c1.256,0.138,2.93,0.335,4.188,0.457l3.843,0.328
						c1.142,0.071,2.663,0.179,3.805,0.238l3.658,0.147c1.095,0.021,2.555,0.043,3.649,0.068l3.649-0.011
						c1.107-0.027,2.584-0.055,3.69-0.092l3.831-0.182c1.183-0.083,2.761-0.182,3.943-0.278l4.248-0.404
						c1.342-0.162,3.135-0.362,4.475-0.542l5.538-0.845c8.478-1.592,18.086-3.397,33.677-9.228l8.756-3.653
						c11.276-5.438,12.197-5.882,19.229-10.075l9.644-6.257c4.244-3.16,9.887-7.403,13.97-10.769l9.117-8.338
						c3.282-3.455,7.705-8.023,10.828-11.624l7.871-9.985c2.525-3.749,5.978-8.695,8.332-12.554l6.202-11.302
						c1.81-4.023,4.334-9.343,5.956-13.446l4.221-12.339c1.069-4.264,2.628-9.921,3.492-14.231l1.977-13.115
						c0.294-4.738,0.807-11.054,0.854-15.801l-0.518-13.44c-0.515-4.298-1.063-10.051-1.766-14.323l-2.682-12.799
						c-1.2-4.079-2.676-9.558-4.052-13.581l-4.658-11.924c-1.847-3.818-4.201-8.964-6.21-12.699l-6.418-10.803
						c-2.476-3.527-5.693-8.292-8.319-11.708l-7.89-9.399c-3.142-3.228-7.279-7.587-10.562-10.67l-8.767-7.541
						c-11.627-8.685-12.842-9.593-22.099-14.998C309.076,59.894,335.462,104.842,335.359,159.963"/>
					<path fill="#9C0F13" d="M335.359,159.963c-0.134,71.984-50.438,140.313-113.854,167.937l0,0
						c-103.4,54.176-241.502-63.918-205.236-175.5c35.491-109.197,198.198-97.325,252.314,18.41
						c30.543,65.318,0.048,131.166-47.078,157.09C284.921,300.276,335.226,231.947,335.359,159.963
						c0.103-55.122-26.283-100.07-66.316-122.814c-2.592-1.374-6.047-3.206-8.638-4.58c-3.907-1.795-9.128-4.171-13.108-5.8
						l-7.278-2.669c-2.577-0.817-6.003-1.937-8.6-2.687l-6.046-1.601c-1.92-0.438-4.474-1.047-6.401-1.449l-5.189-0.996
						c-1.578-0.256-3.678-0.618-5.259-0.852l-4.648-0.625c-1.391-0.152-3.244-0.371-4.638-0.506l-4.333-0.369
						c-1.294-0.081-3.019-0.206-4.314-0.27l-4.188-0.169c-1.258-0.023-2.933-0.079-4.189-0.079l-4.194,0.013
						c-1.271,0.031-2.966,0.026-4.234,0.105l-4.363,0.207c-1.339,0.094-3.126,0.203-4.464,0.315l-4.736,0.451
						c-1.482,0.179-3.461,0.4-4.941,0.598l-5.938,0.905c-15.436,2.901-23.52,5.193-37.608,10.664l-8.748,3.891
						c-11.288,5.813-11.964,6.162-18.469,10.313l-9.284,6.437c-3.98,3.181-9.276,7.441-13.09,10.82l-8.583,8.455
						c-3.022,3.444-7.105,7.995-9.966,11.574l-7.286,10.049c-2.289,3.717-5.429,8.622-7.552,12.437L23.1,113.06
						c-1.613,3.976-3.876,9.235-5.314,13.277l-3.785,12.347c-0.931,4.204-2.303,9.784-3.049,14.024l-1.716,13.125
						c-0.217,4.39-0.646,10.24-0.67,14.635l0.57,13.442c0.807,6.153,1.964,14.354,3.187,20.439l3.432,12.658
						c1.487,4.093,3.347,9.601,5.02,13.621l5.509,11.729c2.174,3.811,4.972,8.954,7.312,12.666l7.289,10.528
						c2.832,3.499,6.533,8.229,9.513,11.601l8.673,9.019c3.522,3.181,8.182,7.468,11.842,10.488l9.388,7.101
						c4.421,2.912,10.339,6.768,14.897,9.46l8.926,4.742c4.156,1.92,9.714,4.447,13.948,6.188l7.352,2.698
						c2.625,0.836,6.118,1.978,8.764,2.743l5.899,1.562c1.869,0.427,4.355,1.021,6.231,1.412l4.88,0.938
						c1.473,0.239,3.435,0.578,4.911,0.796l4.229,0.568c1.256,0.138,2.93,0.335,4.188,0.457l3.843,0.328
						c1.142,0.071,2.663,0.179,3.805,0.238l3.658,0.147c1.095,0.021,2.555,0.043,3.649,0.068l3.649-0.011
						c1.107-0.027,2.584-0.055,3.69-0.092l3.831-0.182c1.183-0.083,2.761-0.182,3.943-0.278l4.248-0.404
						c1.342-0.162,3.135-0.362,4.475-0.542l5.538-0.845c8.478-1.592,18.086-3.397,33.677-9.228l8.756-3.653
						c11.276-5.438,12.197-5.882,19.229-10.075l9.644-6.257c4.244-3.16,9.887-7.403,13.97-10.769l9.117-8.338
						c3.282-3.455,7.705-8.023,10.828-11.624l7.871-9.985c2.525-3.749,5.978-8.695,8.332-12.554l6.202-11.302
						c1.81-4.023,4.334-9.343,5.956-13.446l4.221-12.339c1.069-4.264,2.628-9.921,3.492-14.231l1.977-13.115
						c0.294-4.738,0.807-11.054,0.854-15.801l-0.518-13.44c-0.515-4.298-1.063-10.051-1.766-14.323l-2.682-12.799
						c-1.2-4.079-2.676-9.558-4.052-13.581l-4.658-11.924c-1.847-3.818-4.201-8.964-6.21-12.699l-6.418-10.803
						c-2.476-3.527-5.693-8.292-8.319-11.708l-7.89-9.399c-3.142-3.228-7.279-7.587-10.562-10.67l-8.767-7.541
						c-11.627-8.685-12.842-9.593-22.099-14.998C309.076,59.894,335.462,104.842,335.359,159.963"/>
					<g>
						<path fill="#980E11" d="M16.238,228.476C-20.063,99.313,107.276,31.805,207.782,93.938
							c87.146,53.875,106.329,160.828,39.472,220.077c50.763-32.933,87.99-92.141,88.105-154.052
							c0.103-55.122-26.283-100.07-66.316-122.814c-2.592-1.374-6.047-3.206-8.638-4.58c-3.907-1.795-9.128-4.171-13.108-5.8
							l-7.278-2.669c-2.577-0.817-6.003-1.937-8.6-2.687l-6.046-1.601c-1.92-0.438-4.474-1.047-6.401-1.449l-5.189-0.996
							c-1.578-0.256-3.678-0.618-5.259-0.852l-4.648-0.625c-1.391-0.152-3.244-0.371-4.638-0.506l-4.333-0.369
							c-1.294-0.081-3.019-0.206-4.314-0.27l-4.188-0.169c-1.258-0.023-2.933-0.079-4.189-0.079l-4.194,0.013
							c-1.271,0.031-2.966,0.026-4.234,0.105l-4.363,0.207c-1.339,0.094-3.126,0.203-4.464,0.315l-4.736,0.451
							c-1.482,0.179-3.461,0.4-4.941,0.598l-5.938,0.905c-15.436,2.901-23.52,5.193-37.608,10.664l-8.748,3.891
							c-11.288,5.813-11.964,6.162-18.469,10.313l-9.284,6.437c-3.98,3.181-9.276,7.441-13.09,10.82l-8.583,8.455
							c-3.022,3.444-7.105,7.995-9.966,11.574l-7.286,10.049c-2.289,3.717-5.429,8.622-7.552,12.437L23.1,113.06
							c-1.613,3.976-3.876,9.235-5.314,13.277l-3.785,12.347c-0.931,4.204-2.303,9.784-3.049,14.024l-1.716,13.125
							c-0.217,4.39-0.646,10.24-0.67,14.635l0.57,13.442c0.807,6.153,1.964,14.354,3.187,20.439l3.432,12.658l3.407,9.644
							L16.238,228.476"/>
						<path fill="#980E11" d="M335.359,159.963c-0.115,61.912-37.343,121.12-88.105,154.052c-2.112,1.803-4.929,4.208-7.041,6.012
							c-30.51,22.181-81.519,40.093-151.267-0.53c4.48,2.667,10.574,6.019,15.178,8.464c4.156,1.92,9.714,4.447,13.948,6.188
							l7.352,2.698c2.625,0.836,6.118,1.978,8.764,2.743l5.899,1.562c1.869,0.427,4.355,1.021,6.231,1.412l4.88,0.938
							c1.473,0.239,3.435,0.578,4.911,0.796l4.229,0.568c1.256,0.138,2.93,0.335,4.188,0.457l3.843,0.328
							c1.142,0.071,2.663,0.179,3.805,0.238l3.658,0.147c1.095,0.021,2.555,0.043,3.649,0.068l3.649-0.011
							c1.107-0.027,2.584-0.055,3.69-0.092l3.831-0.182c1.183-0.083,2.761-0.182,3.943-0.278l4.248-0.404
							c1.342-0.162,3.135-0.362,4.475-0.542l5.538-0.845c8.478-1.592,18.086-3.397,33.677-9.228l8.756-3.653
							c11.276-5.438,12.197-5.882,19.229-10.075l9.644-6.257c4.244-3.16,9.887-7.403,13.97-10.769l9.117-8.338
							c3.282-3.455,7.705-8.023,10.828-11.624l7.871-9.985c2.525-3.749,5.978-8.695,8.332-12.554l6.202-11.302
							c1.81-4.023,4.334-9.343,5.956-13.446l4.221-12.339c1.069-4.264,2.628-9.921,3.492-14.231l1.977-13.115
							c0.294-4.738,0.807-11.054,0.854-15.801l-0.518-13.44c-0.515-4.298-1.063-10.051-1.766-14.323l-2.682-12.799
							c-1.2-4.079-2.676-9.558-4.052-13.581l-4.658-11.924c-1.847-3.818-4.201-8.964-6.21-12.699l-6.418-10.803
							c-2.476-3.527-5.693-8.292-8.319-11.708l-7.89-9.399c-3.142-3.228-7.279-7.587-10.562-10.67l-8.767-7.541
							c-11.627-8.685-12.842-9.593-22.099-14.998C309.076,59.894,335.462,104.842,335.359,159.963"/>
					</g>
					<g>
						<path fill="#950C10" d="M10.41,204.344C-5.945,72.838,134.394,26.213,229.871,100.845
							c47.588,37.198,96.754,120.743,37.158,198.442c40.369-34.252,68.23-85.776,68.33-139.324
							c0.103-55.122-26.283-100.07-66.316-122.814c-2.592-1.374-6.047-3.206-8.638-4.58c-3.907-1.795-9.128-4.171-13.108-5.8
							l-7.278-2.669c-2.577-0.817-6.003-1.937-8.6-2.687l-6.046-1.601c-1.92-0.438-4.474-1.047-6.401-1.449l-5.189-0.996
							c-1.578-0.256-3.678-0.618-5.259-0.852l-4.648-0.625c-1.391-0.152-3.244-0.371-4.638-0.506l-4.333-0.369
							c-1.294-0.081-3.019-0.206-4.314-0.27l-4.188-0.169c-1.258-0.023-2.933-0.079-4.189-0.079l-4.194,0.013
							c-1.271,0.031-2.966,0.026-4.234,0.105l-4.363,0.207c-1.339,0.094-3.126,0.203-4.464,0.315l-4.736,0.451
							c-1.482,0.179-3.461,0.4-4.941,0.598l-5.938,0.905c-15.436,2.901-23.52,5.193-37.608,10.664l-8.748,3.891
							c-11.288,5.813-11.964,6.162-18.469,10.313l-9.284,6.437c-3.98,3.181-9.276,7.441-13.09,10.82l-8.583,8.455
							c-3.022,3.444-7.105,7.995-9.966,11.574l-7.286,10.049c-2.289,3.717-5.429,8.622-7.552,12.437L23.1,113.06
							c-1.613,3.976-3.876,9.235-5.314,13.277l-3.785,12.347c-0.931,4.204-2.303,9.784-3.049,14.024l-1.716,13.125
							c-0.217,4.39-0.646,10.24-0.67,14.635l0.57,13.442l1.665,12.816L10.41,204.344"/>
						<path fill="#950C10" d="M335.359,159.963c-0.1,53.547-27.961,105.072-68.33,139.324c-1.442,1.801-3.366,4.201-4.809,6.003
							c-49.579,51.917-108.786,41.424-139.667,30.548l7.264,2.448l4.37,1.304l5.899,1.562c1.869,0.427,4.355,1.021,6.231,1.412
							l4.88,0.938c1.473,0.239,3.435,0.578,4.911,0.796l4.229,0.568c1.256,0.138,2.93,0.335,4.188,0.457l3.843,0.328
							c1.142,0.071,2.663,0.179,3.805,0.238l3.658,0.147c1.095,0.021,2.555,0.043,3.649,0.068l3.649-0.011
							c1.107-0.027,2.584-0.055,3.69-0.092l3.831-0.182c1.183-0.083,2.761-0.182,3.943-0.278l4.248-0.404
							c1.342-0.162,3.135-0.362,4.475-0.542l5.538-0.845c8.478-1.592,18.086-3.397,33.677-9.228l8.756-3.653
							c11.276-5.438,12.197-5.882,19.229-10.075l9.644-6.257c4.244-3.16,9.887-7.403,13.97-10.769l9.117-8.338
							c3.282-3.455,7.705-8.023,10.828-11.624l7.871-9.985c2.525-3.749,5.978-8.695,8.332-12.554l6.202-11.302
							c1.81-4.023,4.334-9.343,5.956-13.446l4.221-12.339c1.069-4.264,2.628-9.921,3.492-14.231l1.977-13.115
							c0.294-4.738,0.807-11.054,0.854-15.801l-0.518-13.44c-0.515-4.298-1.063-10.051-1.766-14.323l-2.682-12.799
							c-1.2-4.079-2.676-9.558-4.052-13.581l-4.658-11.924c-1.847-3.818-4.201-8.964-6.21-12.699l-6.418-10.803
							c-2.476-3.527-5.693-8.292-8.319-11.708l-7.89-9.399c-3.142-3.228-7.279-7.587-10.562-10.67l-8.767-7.541
							c-11.627-8.685-12.842-9.593-22.099-14.998C309.076,59.894,335.462,104.842,335.359,159.963"/>
					</g>
					<g>
						<path fill="#910B0E" d="M8.565,180.398c6.427-137.395,166.16-156.35,251.822-60.255
							c35.636,39.976,56.696,105.925,23.418,163.146c31.111-33.288,51.469-77.569,51.554-123.327
							c0.103-55.122-26.283-100.07-66.316-122.814c-2.592-1.374-6.047-3.206-8.638-4.58c-3.907-1.795-9.128-4.171-13.108-5.8
							l-7.278-2.669c-2.577-0.817-6.003-1.937-8.6-2.687l-6.046-1.601c-1.92-0.438-4.474-1.047-6.401-1.449l-5.189-0.996
							c-1.578-0.256-3.678-0.618-5.259-0.852l-4.648-0.625c-1.391-0.152-3.244-0.371-4.638-0.506l-4.333-0.369
							c-1.294-0.081-3.019-0.206-4.314-0.27l-4.188-0.169c-1.258-0.023-2.933-0.079-4.189-0.079l-4.194,0.013
							c-1.271,0.031-2.966,0.026-4.234,0.105l-4.363,0.207c-1.339,0.094-3.126,0.203-4.464,0.315l-4.736,0.451
							c-1.482,0.179-3.461,0.4-4.941,0.598l-5.938,0.905c-15.436,2.901-23.52,5.193-37.608,10.664l-8.748,3.891
							c-11.288,5.813-11.964,6.162-18.469,10.313l-9.284,6.437c-3.98,3.181-9.276,7.441-13.09,10.82l-8.583,8.455
							c-3.022,3.444-7.105,7.995-9.966,11.574l-7.286,10.049c-2.289,3.717-5.429,8.622-7.552,12.437L23.1,113.06
							c-1.613,3.976-3.876,9.235-5.314,13.277l-3.785,12.347c-0.931,4.204-2.303,9.784-3.049,14.024l-1.716,13.125
							c-0.217,4.39-0.646,10.24-0.67,14.635V180.398"/>
						<path fill="#910B0E" d="M335.359,159.963c-0.085,45.757-20.442,90.039-51.554,123.327c-0.117,0.229-0.272,0.533-0.39,0.762
							c-27.899,47.069-77.744,69.219-133.334,59.248l4.771,0.808l1.257,0.19l4.229,0.568c1.256,0.138,2.93,0.335,4.188,0.457
							l3.843,0.328c1.142,0.071,2.663,0.179,3.805,0.238l3.658,0.147c1.095,0.021,2.555,0.043,3.649,0.068l3.649-0.011
							c1.107-0.027,2.584-0.055,3.69-0.092l3.831-0.182c1.183-0.083,2.761-0.182,3.943-0.278l4.248-0.404
							c1.342-0.162,3.135-0.362,4.475-0.542l5.538-0.845c8.478-1.592,18.086-3.397,33.677-9.228l8.756-3.653
							c11.276-5.438,12.197-5.882,19.229-10.075l9.644-6.257c4.244-3.16,9.887-7.403,13.97-10.769l9.117-8.338
							c3.282-3.455,7.705-8.023,10.828-11.624l7.871-9.985c2.525-3.749,5.978-8.695,8.332-12.554l6.202-11.302
							c1.81-4.023,4.334-9.343,5.956-13.446l4.221-12.339c1.069-4.264,2.628-9.921,3.492-14.231l1.977-13.115
							c0.294-4.738,0.807-11.054,0.854-15.801l-0.518-13.44c-0.515-4.298-1.063-10.051-1.766-14.323l-2.682-12.799
							c-1.2-4.079-2.676-9.558-4.052-13.581l-4.658-11.924c-1.847-3.818-4.201-8.964-6.21-12.699l-6.418-10.803
							c-2.476-3.527-5.693-8.292-8.319-11.708l-7.89-9.399c-3.142-3.228-7.279-7.587-10.562-10.67l-8.767-7.541
							c-11.627-8.685-12.842-9.593-22.099-14.998C309.076,59.894,335.462,104.842,335.359,159.963"/>
					</g>
					<g>
						<path fill="#8E090C" d="M12.239,146.428c28.437-120.484,195.165-126.294,270.303-9.419
							c18.781,29.214,36.785,75.265,15.896,128.743c22.709-30.569,36.851-67.666,36.922-105.789
							c0.103-55.122-26.283-100.07-66.316-122.814c-2.592-1.374-6.047-3.206-8.638-4.58c-3.907-1.795-9.128-4.171-13.108-5.8
							l-7.278-2.669c-2.577-0.817-6.003-1.937-8.6-2.687l-6.046-1.601c-1.92-0.438-4.474-1.047-6.401-1.449l-5.189-0.996
							c-1.578-0.256-3.678-0.618-5.259-0.852l-4.648-0.625c-1.391-0.152-3.244-0.371-4.638-0.506l-4.333-0.369
							c-1.294-0.081-3.019-0.206-4.314-0.27l-4.188-0.169c-1.258-0.023-2.933-0.079-4.189-0.079l-4.194,0.013
							c-1.271,0.031-2.966,0.026-4.234,0.105l-4.363,0.207c-1.339,0.094-3.126,0.203-4.464,0.315l-4.736,0.451
							c-1.482,0.179-3.461,0.4-4.941,0.598l-5.938,0.905c-15.436,2.901-23.52,5.193-37.608,10.664l-8.748,3.891
							c-11.288,5.813-11.964,6.162-18.469,10.313l-9.284,6.437c-3.98,3.181-9.276,7.441-13.09,10.82l-8.583,8.455
							c-3.022,3.444-7.105,7.995-9.966,11.574l-7.286,10.049c-2.289,3.717-5.429,8.622-7.552,12.437L23.1,113.06
							c-1.613,3.976-3.876,9.235-5.314,13.277l-3.785,12.347c-0.931,4.204-2.303,9.784-3.049,14.024
							c-0.201,1.269-0.469,2.961-0.67,4.23C10.869,153.785,11.577,149.566,12.239,146.428"/>
						<path fill="#8E090C" d="M335.359,159.963c-0.071,38.123-14.213,75.219-36.922,105.789c-0.895,2.39-2.086,5.576-2.979,7.966
							c-33.834,67.02-94.494,72.913-119.003,72.337c2.003,0.033,4.674,0.046,6.678,0.04c1.107-0.027,2.584-0.055,3.69-0.092
							l3.831-0.182c1.183-0.083,2.761-0.182,3.943-0.278l4.248-0.404c1.342-0.162,3.135-0.362,4.475-0.542l5.538-0.845
							c8.478-1.592,18.086-3.397,33.677-9.228l8.756-3.653c11.276-5.438,12.197-5.882,19.229-10.075l9.644-6.257
							c4.244-3.16,9.887-7.403,13.97-10.769l9.117-8.338c3.282-3.455,7.705-8.023,10.828-11.624l7.871-9.985
							c2.525-3.749,5.978-8.695,8.332-12.554l6.202-11.302c1.81-4.023,4.334-9.343,5.956-13.446l4.221-12.339
							c1.069-4.264,2.628-9.921,3.492-14.231l1.977-13.115c0.294-4.738,0.807-11.054,0.854-15.801l-0.518-13.44
							c-0.515-4.298-1.063-10.051-1.766-14.323l-2.682-12.799c-1.2-4.079-2.676-9.558-4.052-13.581l-4.658-11.924
							c-1.847-3.818-4.201-8.964-6.21-12.699l-6.418-10.803c-2.476-3.527-5.693-8.292-8.319-11.708l-7.89-9.399
							c-3.142-3.228-7.279-7.587-10.562-10.67l-8.767-7.541c-11.627-8.685-12.842-9.593-22.099-14.998
							C309.076,59.894,335.462,104.842,335.359,159.963"/>
					</g>
					<g>
						<path fill="#8A080A" d="M16.639,129.739C67.252-3.814,250.396,34.197,303.311,157.917
							c12.976,30.339,15.631,59.121,8.118,87.992c14.985-26.181,23.874-55.741,23.931-85.946
							c0.103-55.122-26.283-100.07-66.316-122.814c-2.592-1.374-6.047-3.206-8.638-4.58c-3.907-1.795-9.128-4.171-13.108-5.8
							l-7.278-2.669c-2.577-0.817-6.003-1.937-8.6-2.687l-6.046-1.601c-1.92-0.438-4.474-1.047-6.401-1.449l-5.189-0.996
							c-1.578-0.256-3.678-0.618-5.259-0.852l-4.648-0.625c-1.391-0.152-3.244-0.371-4.638-0.506l-4.333-0.369
							c-1.294-0.081-3.019-0.206-4.314-0.27l-4.188-0.169c-1.258-0.023-2.933-0.079-4.189-0.079l-4.194,0.013
							c-1.271,0.031-2.966,0.026-4.234,0.105l-4.363,0.207c-1.339,0.094-3.126,0.203-4.464,0.315l-4.736,0.451
							c-1.482,0.179-3.461,0.4-4.941,0.598l-5.938,0.905c-15.436,2.901-23.52,5.193-37.608,10.664l-8.748,3.891
							c-11.288,5.813-11.964,6.162-18.469,10.313l-9.284,6.437c-3.98,3.181-9.276,7.441-13.09,10.82l-8.583,8.455
							c-3.022,3.444-7.105,7.995-9.966,11.574l-7.286,10.049c-2.289,3.717-5.429,8.622-7.552,12.437L23.1,113.06
							c-1.613,3.976-3.876,9.235-5.314,13.277c-0.512,1.543-1.195,3.601-1.707,5.144C16.247,130.958,16.458,130.257,16.639,129.739"
							/>
						<path fill="#8A080A" d="M335.359,159.963c-0.057,30.205-8.945,59.765-23.931,85.946c-0.071,0.474-0.165,1.106-0.236,1.581
							c-14.616,61.912-64.82,90.69-106.931,96.978l5.588-0.887c7.987-1.55,17.928-3.479,32.686-9.057l8.756-3.653
							c11.276-5.438,12.197-5.882,19.229-10.075l9.644-6.257c4.244-3.16,9.887-7.403,13.97-10.769l9.117-8.338
							c3.282-3.455,7.705-8.023,10.828-11.624l7.871-9.985c2.525-3.749,5.978-8.695,8.332-12.554l6.202-11.302
							c1.81-4.023,4.334-9.343,5.956-13.446l4.221-12.339c1.069-4.264,2.628-9.921,3.492-14.231l1.977-13.115
							c0.294-4.738,0.807-11.054,0.854-15.801l-0.518-13.44c-0.515-4.298-1.063-10.051-1.766-14.323l-2.682-12.799
							c-1.2-4.079-2.676-9.558-4.052-13.581l-4.658-11.924c-1.847-3.818-4.201-8.964-6.21-12.699l-6.418-10.803
							c-2.476-3.527-5.693-8.292-8.319-11.708l-7.89-9.399c-3.142-3.228-7.279-7.587-10.562-10.67l-8.767-7.541
							c-11.627-8.685-12.842-9.593-22.099-14.998C309.076,59.894,335.462,104.842,335.359,159.963"/>
					</g>
					<g>
						<path fill="#870608" d="M35.177,91.364c74.606-106.185,262.363-44.71,287,93.968c2.264,12.743,2.76,20.12,1.028,36.151
							c7.751-19.566,12.115-40.386,12.154-61.52c0.103-55.122-26.283-100.07-66.316-122.814c-2.592-1.374-6.047-3.206-8.638-4.58
							c-3.907-1.795-9.128-4.171-13.108-5.8l-7.278-2.669c-2.577-0.817-6.003-1.937-8.6-2.687l-6.046-1.601
							c-1.92-0.438-4.474-1.047-6.401-1.449l-5.189-0.996c-1.578-0.256-3.678-0.618-5.259-0.852l-4.648-0.625
							c-1.391-0.152-3.244-0.371-4.638-0.506l-4.333-0.369c-1.294-0.081-3.019-0.206-4.314-0.27l-4.188-0.169
							c-1.258-0.023-2.933-0.079-4.189-0.079l-4.194,0.013c-1.271,0.031-2.966,0.026-4.234,0.105l-4.363,0.207
							c-1.339,0.094-3.126,0.203-4.464,0.315l-4.736,0.451c-1.482,0.179-3.461,0.4-4.941,0.598l-5.938,0.905
							c-15.436,2.901-23.52,5.193-37.608,10.664l-8.748,3.891c-11.288,5.813-11.964,6.162-18.469,10.313l-9.284,6.437
							c-3.98,3.181-9.276,7.441-13.09,10.82l-8.583,8.455c-3.022,3.444-7.105,7.995-9.966,11.574l-7.286,10.049
							c-2.289,3.717-5.429,8.622-7.552,12.437l4.568-7.596C33.879,93.304,34.602,92.182,35.177,91.364"/>
						<path fill="#870608" d="M335.359,159.963c-0.039,21.134-4.403,41.954-12.154,61.52l0,0
							c-0.949,60.726-48.028,103.092-91.369,116.757l6.275-2.082l4.424-1.634l8.756-3.653c11.276-5.438,12.197-5.882,19.229-10.075
							l9.644-6.257c4.244-3.16,9.887-7.403,13.97-10.769l9.117-8.338c3.282-3.455,7.705-8.023,10.828-11.624l7.871-9.985
							c2.525-3.749,5.978-8.695,8.332-12.554l6.202-11.302c1.81-4.023,4.334-9.343,5.956-13.446l4.221-12.339
							c1.069-4.264,2.628-9.921,3.492-14.231l1.977-13.115c0.294-4.738,0.807-11.054,0.854-15.801l-0.518-13.44
							c-0.515-4.298-1.063-10.051-1.766-14.323l-2.682-12.799c-1.2-4.079-2.676-9.558-4.052-13.581l-4.658-11.924
							c-1.847-3.818-4.201-8.964-6.21-12.699l-6.418-10.803c-2.476-3.527-5.693-8.292-8.319-11.708l-7.89-9.399
							c-3.142-3.228-7.279-7.587-10.562-10.67l-8.767-7.541c-11.627-8.685-12.842-9.593-22.099-14.998
							C309.076,59.894,335.462,104.842,335.359,159.963"/>
					</g>
					<path fill="#A31216" d="M134.785,335.736c97.267,18.884,175.375-80.872,109.454-180.948
						C184.145,63.561,34.481,61.819,14.655,177.268C3.11,244.494,61.491,321.507,134.785,335.736"/>
					<path fill="#A61317" d="M119.35,330.062c108.347,32.669,175.444-78.602,126.109-162.549
						c-56.888-96.796-198.174-98.256-225.637-2.332C-1.125,238.346,55.462,310.798,119.35,330.062"/>
					<path fill="#AA1418" d="M96.425,318.871c101.804,51.182,177.937-41.264,155.732-119.477
						C222.875,96.251,77.458,63.499,29.877,149.331C-5.413,212.99,35.795,288.39,96.425,318.871"/>
					<path fill="#AE151A" d="M91.221,314.18c96.402,52.154,176.775-26.712,154.432-115.65
						C222.773,107.461,76.91,63.686,29.745,157.239C0.439,215.367,37.872,285.317,91.221,314.18"/>
					<path fill="#B1161B" d="M78.749,304.105c87.162,59.376,180.989-0.234,161.928-102.876
						C226.32,123.922,97.056,75.323,41.843,145.459C0.475,198.01,28.79,268.725,78.749,304.105"/>
					<path fill="#B5171C" d="M79.681,302.138c91.805,62.268,167.595-12.301,157.812-89.321
						C226.075,122.93,94.776,82.044,42.368,152.056C5.312,201.559,31.744,269.624,79.681,302.138"/>
					<path fill="#B8181D" d="M68.912,290.703c85.7,73.432,174.65-0.158,163.244-78.458C219.407,124.73,89.592,89.331,41.879,160.357
						C15.827,199.139,27.449,255.176,68.912,290.703"/>
					<path fill="#BC181E" d="M70.754,288.704c87.695,74.04,166.33-9.304,155.994-76.975c-9.727-63.682-62.162-76.962-64.389-77.496
						c-23.675-5.678-86.562-20.76-119.818,33.318C16.95,209.165,37.977,261.031,70.754,288.704"/>
					<path fill="#C0191F" d="M73.083,286.725c76.285,64.823,155.054-2.044,149.556-75.346
						c-5.765-76.851-124.776-109.096-172.083-46.625C19.781,205.392,39.193,257.926,73.083,286.725"/>
					<path fill="#C31A20" d="M64.812,273.892c66.297,70.938,146.591,20.499,153.808-47.963
						c7.962-75.531-91.146-119.677-153.689-68.459C26.819,188.68,35.195,242.201,64.812,273.892"/>
					<path fill="#C71B21" d="M68.22,271.828c62.21,65.963,144.769,20.413,147.104-58.674c1.705-57.748-90.599-101.784-145.139-53.78
						C26.879,197.49,45.284,247.508,68.22,271.828"/>
					<path fill="#CA1B22" d="M72.359,269.71c65.648,66.889,144.625-2.654,139.35-59.1c-6.597-70.583-110.002-93.066-151.568-32.954
						C41.731,204.28,46.983,243.855,72.359,269.71"/>
					<path fill="#CE1C23" d="M77.342,267.547c57.149,57.461,135.979-1.009,130.679-57.144
						c-4.427-46.891-45.162-58.996-45.571-59.097c-26.554-6.55-32.863-8.107-46.125-4.699
						c-29.399,7.556-43.247,21.485-48.885,29.116C50.726,198.348,46.694,236.732,77.342,267.547"/>
					<path fill="#D11D23" d="M72.692,253.461c41.66,56.873,120.396,30.337,130.934-28.459
						c11.365-63.408-65.51-91.902-108.921-67.057C67.534,173.495,44.768,215.34,72.692,253.461"/>
					<path fill="#D51D24" d="M78.593,251.469c39.747,50.412,111.114,26.607,122.341-26.585
						c12.197-57.796-59.037-90.97-105.975-63.277C66.859,178.185,53.89,220.137,78.593,251.469"/>
					<path fill="#D81E25" d="M84.518,249.721c41.863,50.28,117.126,14.342,115.23-39.688
						c-1.904-54.283-79.157-73.079-112.335-38.572C51.964,208.329,81.081,245.594,84.518,249.721"/>
					<path fill="#DD1F26" d="M89.859,248.323c41.84,43.982,109.007,11.461,107.417-38.375c-1.063-33.348-34.332-48.12-34.667-48.248
						c-41.081-15.702-64.587,4.465-68.883,8.667C54.447,208.798,86.118,244.392,89.859,248.323"/>
					<path fill="#E04533" d="M85.183,234.243c28.559,47.872,94.087,34.8,107.62-9.631c12.738-41.823-38.288-84.185-87.504-58.087
						C70.222,185.125,78.279,222.671,85.183,234.243"/>
					<path fill="#E1513B" d="M89.841,233.168c18.827,30.859,49.983,28.313,61.713,27.354c6.648-0.543,31.497-14.42,38.296-35.526
						c12.579-39.052-30.264-75.508-72.765-61.918C83.559,173.798,75.05,208.924,89.841,233.168"/>
					<path fill="#E25A42" d="M93.278,232.432c25.539,40.498,81.926,29.697,94.068-7.93c8.668-26.859-10.729-45.087-10.934-45.244
						c-17.455-13.409-17.455-13.409-36.696-16.961c-0.134-0.025-18.308,0.432-26.436,5.307
						C74.846,190.658,84.251,218.116,93.278,232.432"/>
					<path fill="#E36147" d="M96.384,231.804c13.737,19.753,40.129,25.641,53.899,22.296c37.25-9.046,37.055-44.03,37.048-44.383
						c-0.258-14.36-6.887-33.354-37.003-42.289c-28.123-8.344-43.092,6.056-52.998,15.585
						C97.122,183.214,78.235,205.706,96.384,231.804"/>
					<path fill="#E4674C" d="M99.564,231.197c13.596,18.12,37.912,23.464,50.239,20.355c34.836-8.787,35.052-40.519,35.044-41.865
						c-0.081-13.886-7.785-24.18-14.232-30.37c-5.93-5.692-5.93-5.692-30.695-12.762c-6.521-1.861-16.109,0.989-22.287,3.788
						c-6.527,2.958-14.189,9.275-18.746,14.807C91.526,194.086,86.87,214.28,99.564,231.197"/>
					<path fill="#E56C51" d="M102.816,230.612c13.584,17.701,37.661,20.809,46.533,18.479c32.768-8.604,33.232-38.167,33.236-39.422
						c0.037-12.159-1.651-14.629-14.874-30.302c-3.623-4.293-11.749-5.927-17.109-7.606c-13.543-4.244-13.543-4.244-32.77,0.891
						c-5.621,1.501-11.563,7.464-15.28,11.94C100.689,186.838,84.853,207.206,102.816,230.612"/>
					<path fill="#E57156" d="M106.141,230.05c0.07,0.089,8.034,9.314,24.699,15.769c5.059,1.959,12.834,2.23,18.064,0.793l17.147-8
						c9.992-11.75,14.127-16.613,14.272-28.948c0.055-4.636-1.091-11.027-3.32-15.092c-0.079-0.144-11.808-15.726-13.995-16.481
						c-6.832-2.363-15.687-8.332-22.876-7.575c-15.364,1.617-24.637,2.593-33.842,13.544
						C99.291,192.387,89.964,209.435,106.141,230.05"/>
					<path fill="#E6755A" d="M106.062,224.116c0.963,1.643,1.836,4.207,3.305,5.419c5.05,4.164,12.159,9.421,18.08,12.213
						c1.806,0.852,6.939,2.292,21.021,2.366c0.569,0.003,16.315-7.756,17.369-8.559c3.321-2.529,6.567-7.34,8.416-11.083
						c4.479-9.067,8.984-26.815-11.165-43.808c-2.208-1.861-22.696-8.162-22.84-8.173c-6.727-0.511-15.875,1.893-21.976,4.771
						c-11.989,5.658-17.546,22.975-17.59,23.144C98.06,210.473,101.072,215.608,106.062,224.116"/>
					<path fill="#E7795D" d="M112.505,229.062c4.201,4.283,11.13,8.871,16.787,10.867c5.325,1.878,13.348,3.322,18.747,1.669
						c22.378-6.855,27.443-21.144,27.753-31.923c0.449-15.667-10.33-25.929-19.696-29.957c-4.569-1.965-10.768-5.644-15.727-5.25
						c-0.2,0.016-20.254,1.888-26.451,8.599C92.985,205.739,107.544,224.005,112.505,229.062"/>
					<path fill="#E77C61" d="M115.702,228.609c3.261,3.247,8.48,6.938,12.852,8.374c5.468,1.796,13.599,3.898,19.069,2.109
						c5.782-1.892,13.778-5.149,17.8-9.714c6.88-7.81,8.096-19.573,8.1-19.684c0.683-18.538-13.214-25.288-22.411-29.754
						c-3.017-1.466-7.274-3.767-10.617-3.499c-0.182,0.014-21.026,4.412-22.728,6.173
						C102.065,198.865,101.37,214.34,115.702,228.609"/>
					<path fill="#E88064" d="M118.948,228.177c2.285,2.227,5.83,4.925,8.886,5.839c5.624,1.68,13.855,4.562,19.391,2.609
						c5.876-2.072,13.849-5.719,18-10.366c3.132-3.507,6.024-16.43,6.029-16.533c0.077-1.72,0.061-10.77-7.854-20.072
						c-3.825-4.496-11.935-6.901-17.261-9.446c-9.359-4.473-26.899,4.487-27.04,4.595c-4.171,3.208-10.041,9.106-10.059,14.368
						c-0.016,4.581-1.05,10.929,0.431,15.264C111.089,219.173,115.361,224.682,118.948,228.177"/>
					<path fill="#E88368" d="M122.216,227.769c1.281,1.221,3.204,2.814,4.916,3.258c5.793,1.5,14.117,5.267,19.702,3.117
						c5.16-1.986,12.124-5.328,15.842-9.421c5.186-5.707,6.303-14.873,6.307-14.958c0.005-0.108-0.97-12.396-5.469-17.129
						c-5.253-5.525-15.359-9.047-22.337-12.118c-1.054-0.464-21.551,7.351-21.69,7.459c-8.648,6.71-8.287,11.983-7.32,26.077
						C112.517,219.143,118.525,224.249,122.216,227.769"/>
					<path fill="#E9866B" d="M125.503,227.385c1.632,1.525,20.836,4.311,20.948,4.263c19.215-8.193,20.256-21.699,20.261-21.833
						c0.177-4.675-1.053-11.618-4.294-14.99c-5.09-5.296-14.126-11.3-21.455-11.797c-6.757-0.459-15.227,4.684-21.065,8.116
						c-2.299,1.352-4.235,4.755-5.113,7.273c-1.508,4.326-1.476,10.975,0.114,15.271
						C116.702,218.562,121.705,223.838,125.503,227.385"/>
					<path fill="#E9896E" d="M125.442,223.377c2.889,2.228,18.846,6.38,20.635,5.76c2.17-0.751,4.954-2.318,6.539-3.981
						c0.117-0.122,11.817-15.062,11.825-15.283c0.03-0.848-6.242-14.833-6.308-14.901c-4.021-4.174-11.174-8.931-16.96-9.248
						c-6.751-0.371-14.856,5.434-20.841,8.578c-1.223,0.643-2.12,2.491-2.652,3.766c-1.766,4.228-1.376,10.892-0.033,15.271
						C118.765,216.983,122.422,221.049,125.442,223.377"/>
					<path fill="#EA8C71" d="M124.378,218.185c0.132,0.103,18.688,9.032,21.333,8.429c0.649-0.148,1.452-0.664,1.891-1.165
						c3.944-4.506,11.752-9.521,12.648-15.442c0.726-4.798-3.206-11.201-6.397-14.856c-2.795-3.201-8.214-6.559-12.459-6.737
						c-0.151-0.006-20.208,8.273-20.808,9.321c-2.273,3.978-1.015,10.766-0.18,15.271
						C120.763,214.93,122.833,216.982,124.378,218.185"/>
					<path fill="#EA8F74" d="M123.373,212.944c5.649,4.502,14.794,11.709,21.843,10.131c4.909-1.099,9.941-7.928,10.714-12.897
						c0.744-4.779-3.452-10.947-6.353-14.816c-1.625-2.166-5.249-4.146-7.954-4.265c-4.436-0.194-10.61,2.571-13.587,5.865
						C127.933,197.076,122.416,212.182,123.373,212.944"/>
					<path fill="#EB9277" d="M144.647,218.819c3.208-0.694,6.5-5.186,6.97-8.435c0.69-4.771-3.865-10.621-6.306-14.777
						c-0.593-1.01-2.276-1.78-3.446-1.833c-1.921-0.085-4.571,1.108-5.905,2.493c-3.482,3.616-7.757,11.073-5.8,15.696
						C132.034,216.392,139.948,219.837,144.647,218.819"/>
					<path fill="#EB947A" d="M144.102,214.532c1.481-0.327,2.996-2.403,3.21-3.905c0.531-3.724-3.455-8.068-4.936-11.526
						c-1.488,3.665-6.41,8.549-4.944,12.223C138.255,213.386,141.934,215.011,144.102,214.532"/>
				</g>
			</g>
			<g enable-background="new    ">
				<defs>
					<path id="SVGID_3_" enable-background="new    " d="M180.479,339.533c-0.01-0.752-0.021-1.504-0.032-2.256
						c0-0.004,0.007-0.008,0.02-0.01c0.018-0.002,0.04,0,0.048,0.005L180.479,339.533z"/>
				</defs>
				<clipPath id="SVGID_4_">
					<use xlink:href="#SVGID_3_"  overflow="visible"/>
				</clipPath>
				<g clip-path="url(#SVGID_4_)" enable-background="new    ">
					<polyline fill="#870608" points="180.515,337.272 180.479,339.533 180.51,337.271 180.515,337.272 					"/>
					<polyline fill="#8A080A" points="180.51,337.271 180.479,339.533 180.479,339.533 180.507,337.27 180.51,337.271 					"/>
					<polyline fill="#8E090C" points="180.507,337.27 180.479,339.533 180.505,337.27 180.507,337.27 					"/>
					<polyline fill="#910B0E" points="180.505,337.27 180.479,339.533 180.503,337.269 180.505,337.27 					"/>
					<polyline fill="#950C10" points="180.503,337.269 180.479,339.533 180.501,337.269 180.503,337.269 					"/>
					<polyline fill="#980E11" points="180.501,337.269 180.479,339.533 180.479,339.533 180.499,337.268 180.501,337.269 					"/>
					<polyline fill="#9C0F13" points="180.499,337.268 180.479,339.533 180.497,337.268 180.499,337.268 					"/>
					<polyline fill="#9F1014" points="180.497,337.268 180.479,339.533 180.495,337.268 180.497,337.268 					"/>
					<polyline fill="#A31216" points="180.495,337.268 180.479,339.533 180.493,337.268 180.495,337.268 					"/>
					<polyline fill="#A61317" points="180.493,337.268 180.479,339.533 180.491,337.268 180.493,337.268 					"/>
					<polyline fill="#AA1418" points="180.491,337.268 180.479,339.533 180.489,337.268 180.491,337.268 					"/>
					<polyline fill="#AE151A" points="180.489,337.268 180.479,339.533 180.487,337.267 180.489,337.268 					"/>
					<polyline fill="#B1161B" points="180.487,337.267 180.479,339.533 180.485,337.267 180.487,337.267 					"/>
					<polyline fill="#B5171C" points="180.485,337.267 180.479,339.533 180.483,337.267 180.485,337.267 					"/>
					<polyline fill="#B8181D" points="180.483,337.267 180.479,339.533 180.481,337.267 180.483,337.267 					"/>
					<polyline fill="#BC181E" points="180.481,337.267 180.479,339.533 180.479,337.267 180.481,337.267 					"/>
					<polyline fill="#C0191F" points="180.479,337.267 180.479,339.533 180.477,337.267 180.479,337.267 					"/>
					<polyline fill="#C31A20" points="180.477,337.267 180.479,339.533 180.474,337.268 180.477,337.268 					"/>
					<polyline fill="#C71B21" points="180.474,337.268 180.479,339.533 180.465,337.269 180.467,337.268 180.474,337.268 					"/>
					<polyline fill="#C31A20" points="180.465,337.269 180.479,339.533 180.46,337.27 180.465,337.269 					"/>
					<polyline fill="#C0191F" points="180.46,337.27 180.479,339.533 180.457,337.27 180.46,337.27 					"/>
					<polyline fill="#BC181E" points="180.457,337.27 180.479,339.533 180.455,337.271 180.457,337.27 					"/>
					<polyline fill="#B8181D" points="180.455,337.271 180.479,339.533 180.479,339.533 180.453,337.271 180.455,337.271 					"/>
					<polyline fill="#B5171C" points="180.453,337.271 180.479,339.533 180.452,337.271 180.453,337.271 					"/>
					<polyline fill="#B1161B" points="180.452,337.271 180.479,339.533 180.451,337.272 180.452,337.271 					"/>
					<polyline fill="#AE151A" points="180.451,337.272 180.479,339.533 180.45,337.272 180.451,337.272 					"/>
					<polyline fill="#AA1418" points="180.45,337.272 180.479,339.533 180.449,337.273 180.45,337.272 					"/>
					<polyline fill="#A61317" points="180.449,337.273 180.479,339.533 180.448,337.273 180.449,337.273 					"/>
					<polyline fill="#A31216" points="180.448,337.273 180.479,339.533 180.448,337.274 180.448,337.273 					"/>
					<polyline fill="#9F1014" points="180.448,337.274 180.479,339.533 180.447,337.275 180.448,337.274 					"/>
					<polyline fill="#9C0F13" points="180.447,337.275 180.479,339.533 180.447,337.275 180.447,337.275 					"/>
					<polyline fill="#980E11" points="180.447,337.275 180.479,339.533 180.447,337.276 180.447,337.275 					"/>
					<polyline fill="#950C10" points="180.447,337.276 180.479,339.533 180.447,337.277 180.447,337.276 					"/>
					<polyline fill="#910B0E" points="180.447,337.277 180.479,339.533 180.479,339.533 180.447,337.277 					"/>
				</g>
			</g>
			<g enable-background="new    ">
				<defs>
					<path id="SVGID_5_" enable-background="new    " d="M180.519,337.277c0-0.002-0.001-0.003-0.004-0.005
						c-0.011,0.679-0.025,1.583-0.037,2.261C180.492,338.781,180.497,338.029,180.519,337.277z"/>
				</defs>
				<clipPath id="SVGID_6_">
					<use xlink:href="#SVGID_5_"  overflow="visible"/>
				</clipPath>
				<g clip-path="url(#SVGID_6_)" enable-background="new    ">
					<polyline fill="#870608" points="180.519,337.277 180.479,339.533 180.515,337.272 180.519,337.277 					"/>
				</g>
			</g>
			<g enable-background="new    ">
				<defs>
					<path id="SVGID_7_" enable-background="new    " d="M180.447,337.277c0.01,0.752,0.021,1.504,0.032,2.256
						c-0.008-0.676-0.02-1.576-0.028-2.252C180.448,337.28,180.447,337.278,180.447,337.277z"/>
				</defs>
				<clipPath id="SVGID_8_">
					<use xlink:href="#SVGID_7_"  overflow="visible"/>
				</clipPath>
				<g clip-path="url(#SVGID_8_)" enable-background="new    ">
					<polyline fill="#870608" points="180.447,337.277 180.479,339.533 180.45,337.281 180.447,337.277 					"/>
				</g>
			</g>
			<g enable-background="new    ">
				<defs>
					<path id="SVGID_9_" enable-background="new    " d="M180.479,339.533l-0.028-2.252c0.009,0.005,0.031,0.007,0.049,0.005
						c0.013-0.002,0.02-0.006,0.02-0.009C180.505,338.029,180.492,338.781,180.479,339.533z"/>
				</defs>
				<clipPath id="SVGID_10_">
					<use xlink:href="#SVGID_9_"  overflow="visible"/>
				</clipPath>
				<g clip-path="url(#SVGID_10_)" enable-background="new    ">
					<polyline fill="#870608" points="180.45,337.281 180.479,339.533 180.456,337.283 180.45,337.281 					"/>
					<polyline fill="#8A080A" points="180.456,337.283 180.479,339.533 180.459,337.284 180.456,337.283 					"/>
					<polyline fill="#8E090C" points="180.459,337.284 180.479,339.533 180.479,339.533 180.461,337.285 180.459,337.284 					"/>
					<polyline fill="#910B0E" points="180.461,337.285 180.479,339.533 180.463,337.285 180.461,337.285 					"/>
					<polyline fill="#950C10" points="180.463,337.285 180.479,339.533 180.466,337.286 180.463,337.285 					"/>
					<polyline fill="#980E11" points="180.466,337.286 180.479,339.533 180.468,337.286 180.466,337.286 					"/>
					<polyline fill="#9C0F13" points="180.468,337.286 180.479,339.533 180.47,337.286 180.468,337.286 					"/>
					<polyline fill="#9F1014" points="180.47,337.286 180.479,339.533 180.472,337.286 180.47,337.286 					"/>
					<polyline fill="#A31216" points="180.472,337.286 180.479,339.533 180.474,337.287 180.472,337.286 					"/>
					<polyline fill="#A61317" points="180.474,337.287 180.479,339.533 180.476,337.287 180.474,337.287 					"/>
					<polyline fill="#AA1418" points="180.476,337.287 180.479,339.533 180.478,337.287 180.476,337.287 					"/>
					<polyline fill="#AE151A" points="180.478,337.287 180.479,339.533 180.48,337.287 180.478,337.287 					"/>
					<polyline fill="#B1161B" points="180.48,337.287 180.479,339.533 180.482,337.287 180.48,337.287 					"/>
					<polyline fill="#B5171C" points="180.482,337.287 180.479,339.533 180.484,337.287 180.482,337.287 					"/>
					<polyline fill="#B8181D" points="180.484,337.287 180.479,339.533 180.486,337.287 180.484,337.287 					"/>
					<polyline fill="#BC181E" points="180.486,337.287 180.479,339.533 180.489,337.287 180.486,337.287 					"/>
					<polyline fill="#C0191F" points="180.489,337.287 180.479,339.533 180.493,337.286 180.489,337.287 					"/>
					<polyline fill="#C31A20" points="180.493,337.286 180.479,339.533 180.502,337.285 180.499,337.286 180.493,337.286 					"/>
					<polyline fill="#C0191F" points="180.502,337.285 180.479,339.533 180.507,337.284 180.502,337.285 					"/>
					<polyline fill="#BC181E" points="180.507,337.284 180.479,339.533 180.509,337.284 180.507,337.284 					"/>
					<polyline fill="#B8181D" points="180.509,337.284 180.479,339.533 180.511,337.283 180.509,337.284 					"/>
					<polyline fill="#B5171C" points="180.511,337.283 180.479,339.533 180.513,337.282 180.511,337.283 					"/>
					<polyline fill="#B1161B" points="180.513,337.282 180.479,339.533 180.514,337.282 180.513,337.282 					"/>
					<polyline fill="#AE151A" points="180.514,337.282 180.479,339.533 180.515,337.281 180.514,337.282 					"/>
					<polyline fill="#AA1418" points="180.515,337.281 180.479,339.533 180.516,337.281 180.515,337.281 					"/>
					<polyline fill="#A61317" points="180.516,337.281 180.479,339.533 180.517,337.28 180.516,337.281 					"/>
					<polyline fill="#A31216" points="180.517,337.28 180.479,339.533 180.518,337.279 180.517,337.28 					"/>
					<polyline fill="#9F1014" points="180.518,337.279 180.479,339.533 180.518,337.279 180.518,337.279 					"/>
					<polyline fill="#9C0F13" points="180.518,337.279 180.479,339.533 180.519,337.278 180.518,337.279 					"/>
					<polyline fill="#980E11" points="180.519,337.278 180.479,339.533 180.519,337.278 180.519,337.278 					"/>
					<polyline fill="#950C10" points="180.519,337.278 180.479,339.533 180.479,339.533 180.519,337.277 180.519,337.278 					"/>
					<polyline fill="#910B0E" points="180.519,337.277 180.479,339.533 180.519,337.277 180.519,337.277 					"/>
				</g>
			</g>
			<g enable-background="new    ">
				<defs>
					<path id="SVGID_11_" enable-background="new    " d="M189.303,23.306c-2.927,104.661-5.857,209.31-8.784,313.972
						c0-0.002-0.001-0.003-0.004-0.005l7.945-314.991C189.042,22.612,189.312,22.962,189.303,23.306z"/>
				</defs>
				<clipPath id="SVGID_12_">
					<use xlink:href="#SVGID_11_"  overflow="visible"/>
				</clipPath>
				<g clip-path="url(#SVGID_12_)" enable-background="new    ">
					<path fill="#870608" d="M189.303,23.307l-8.784,313.971c0-0.002-0.001-0.003-0.004-0.005l7.945-314.991
						C189.043,22.612,189.313,22.962,189.303,23.307"/>
				</g>
			</g>
			<g enable-background="new    ">
				<defs>
					<path id="SVGID_13_" enable-background="new    " d="M180.447,337.277c-2.539-104.673-5.079-209.327-7.618-313.999
						c-0.021-0.851,1.676-1.668,4.611-2.063c4.083-0.549,9.018-0.072,11.02,1.066l-7.945,314.991
						c-0.009-0.005-0.03-0.007-0.048-0.005C180.454,337.27,180.447,337.273,180.447,337.277z"/>
				</defs>
				<clipPath id="SVGID_14_">
					<use xlink:href="#SVGID_13_"  overflow="visible"/>
				</clipPath>
				<g clip-path="url(#SVGID_14_)" enable-background="new    ">
					<path fill="#870608" d="M188.46,22.281l-7.945,314.991c-0.001-0.001-0.003-0.001-0.005-0.002l6.763-315.488
						C187.735,21.93,188.137,22.097,188.46,22.281"/>
					<path fill="#8A080A" d="M187.273,21.782l-6.763,315.488c-0.001,0-0.002-0.001-0.003-0.001l6.174-315.658
						C186.889,21.665,187.086,21.722,187.273,21.782"/>
					<path fill="#8E090C" d="M186.682,21.611l-6.174,315.658c0,0-0.001,0-0.002,0l5.662-315.782
						C186.344,21.527,186.516,21.568,186.682,21.611"/>
					<path fill="#910B0E" d="M186.167,21.488l-5.662,315.782c-0.001-0.001-0.001-0.001-0.002-0.001l5.187-315.878
						C185.853,21.421,186.012,21.454,186.167,21.488"/>
					<path fill="#950C10" d="M185.689,21.39l-5.187,315.878c0,0-0.001,0-0.002,0l4.729-315.959
						C185.387,21.334,185.539,21.361,185.689,21.39"/>
					<path fill="#980E11" d="M185.23,21.309l-4.729,315.959c0,0-0.001,0-0.002-0.001l4.282-316.027
						C184.934,21.262,185.084,21.285,185.23,21.309"/>
					<path fill="#9C0F13" d="M184.781,21.24l-4.282,316.027c0,0-0.001,0-0.002,0l3.841-316.086
						C184.488,21.2,184.636,21.22,184.781,21.24"/>
					<path fill="#9F1014" d="M184.338,21.182l-3.841,316.086c0,0-0.001,0-0.002,0l3.402-316.135
						C184.046,21.147,184.193,21.164,184.338,21.182"/>
					<path fill="#A31216" d="M183.897,21.132l-3.402,316.135c0,0-0.001,0-0.002,0l2.962-316.177
						C183.604,21.104,183.752,21.117,183.897,21.132"/>
					<path fill="#A61317" d="M183.455,21.09l-2.962,316.177c0,0-0.001,0-0.002,0l2.518-316.212
						C183.158,21.066,183.307,21.078,183.455,21.09"/>
					<path fill="#AA1418" d="M183.009,21.056l-2.518,316.212c0,0-0.001,0-0.002,0l2.073-316.239
						C182.713,21.037,182.861,21.046,183.009,21.056"/>
					<path fill="#AE151A" d="M182.562,21.029l-2.073,316.239c0-0.001-0.001-0.001-0.002-0.001l1.634-316.258
						C182.269,21.014,182.416,21.021,182.562,21.029"/>
					<path fill="#B1161B" d="M182.121,21.008l-1.634,316.258c0,0-0.001,0-0.002,0l1.196-316.271
						C181.828,20.999,181.975,21.003,182.121,21.008"/>
					<path fill="#B5171C" d="M181.682,20.995l-1.196,316.271c0,0-0.001,0-0.002,0l0.763-316.278
						C181.392,20.99,181.537,20.992,181.682,20.995"/>
					<path fill="#B8181D" d="M181.246,20.988l-0.763,316.278c0,0-0.001,0-0.001,0l0.33-316.278
						C180.957,20.987,181.102,20.987,181.246,20.988"/>
					<path fill="#BC181E" d="M180.812,20.988l-0.33,316.278c-0.001,0-0.001,0-0.002,0l-0.12-316.272
						C180.51,20.991,180.661,20.989,180.812,20.988"/>
					<path fill="#C0191F" d="M180.359,20.995l0.12,316.272c0,0-0.001,0-0.002,0L179.873,21.01
						C180.035,21.003,180.197,20.998,180.359,20.995"/>
					<path fill="#C31A20" d="M179.873,21.01l0.604,316.257c-0.001,0-0.002,0.001-0.002,0.001L179.268,21.04
						C179.469,21.027,179.671,21.018,179.873,21.01"/>
					<path fill="#C71B21" d="M179.268,21.04l1.207,316.228c-0.003,0-0.005,0-0.008,0c-0.001,0.001-0.002,0.001-0.004,0.001
						l-3.901-315.916c0.279-0.05,0.572-0.096,0.878-0.137C178.035,21.136,178.648,21.077,179.268,21.04"/>
					<path fill="#C31A20" d="M176.562,21.353l3.901,315.916c-0.001,0-0.002,0.001-0.004,0.001L175.67,21.538
						C175.949,21.471,176.247,21.409,176.562,21.353"/>
					<path fill="#C0191F" d="M175.67,21.538l4.789,315.732c-0.001,0-0.001,0-0.002,0.001l-5.394-315.572
						C175.254,21.642,175.457,21.588,175.67,21.538"/>
					<path fill="#BC181E" d="M175.062,21.698l5.394,315.572c0,0-0.001,0-0.002,0L174.61,21.843
						C174.753,21.793,174.904,21.745,175.062,21.698"/>
					<path fill="#B8181D" d="M174.61,21.843l5.844,315.427c0,0-0.001,0.001-0.001,0.001l-6.2-315.293
						C174.366,21.932,174.485,21.887,174.61,21.843"/>
					<path fill="#B5171C" d="M174.253,21.978l6.2,315.293c0,0-0.001,0-0.001,0L173.96,22.106
						C174.053,22.063,174.15,22.02,174.253,21.978"/>
					<path fill="#B1161B" d="M173.96,22.106l6.492,315.165c0,0,0,0.001-0.001,0.001l-6.737-315.04
						C173.791,22.189,173.873,22.148,173.96,22.106"/>
					<path fill="#AE151A" d="M173.714,22.232l6.737,315.04c0,0,0,0-0.001,0.001l-6.945-314.917
						C173.57,22.314,173.64,22.273,173.714,22.232"/>
					<path fill="#AA1418" d="M173.505,22.356l6.945,314.916c0,0.001,0,0.001-0.001,0.001l-7.121-314.794
						C173.383,22.438,173.441,22.396,173.505,22.356"/>
					<path fill="#A61317" d="M173.328,22.479l7.121,314.794c0,0,0,0,0,0.001l-7.269-314.671
						C173.225,22.562,173.274,22.52,173.328,22.479"/>
					<path fill="#A31216" d="M173.179,22.604l7.269,314.671h0L173.056,22.73C173.093,22.688,173.134,22.646,173.179,22.604"/>
					<path fill="#9F1014" d="M173.056,22.73l7.392,314.544l0,0.001l-7.488-314.417C172.987,22.815,173.019,22.772,173.056,22.73"/>
					<path fill="#9C0F13" d="M172.959,22.859l7.488,314.417c0,0,0,0,0,0l-7.56-314.282C172.906,22.948,172.93,22.903,172.959,22.859
						"/>
					<path fill="#980E11" d="M172.887,22.993l7.56,314.282c0,0.001,0,0.001,0,0.001l-7.605-314.142
						C172.852,23.087,172.866,23.04,172.887,22.993"/>
					<path fill="#950C10" d="M172.842,23.134l7.605,314.142c0,0,0,0,0,0.001l-7.618-313.999
						C172.828,23.23,172.832,23.182,172.842,23.134"/>
				</g>
			</g>
			<g enable-background="new    ">
				<defs>
					<path id="SVGID_15_" enable-background="new    " d="M172.829,23.278c0.008,0.333,0.279,0.671,0.843,0.991
						c2.002,1.138,6.936,1.615,11.02,1.066c2.897-0.39,4.588-1.191,4.611-2.03c-1.609,57.563-3.221,115.121-4.831,172.685
						c-0.731,26.165-1.464,52.327-2.196,78.492c-0.131,4.71-0.307,10.989-0.439,15.699c-0.263,9.419-0.614,21.978-0.878,31.396
						c-0.132,4.71-0.439,10.987-0.439,15.699c0,0.004-0.007,0.007-0.02,0.009c-0.018,0.002-0.04,0-0.049-0.005
						c-0.002-0.001-0.003-0.003-0.003-0.004C177.908,232.604,175.368,127.951,172.829,23.278z"/>
				</defs>
				<clipPath id="SVGID_16_">
					<use xlink:href="#SVGID_15_"  overflow="visible"/>
				</clipPath>
				<g clip-path="url(#SVGID_16_)" enable-background="new    ">
					<path fill="#870608" d="M172.829,23.278l7.618,313.999c0,0.001,0.001,0.003,0.003,0.004c0.002,0.001,0.004,0.002,0.006,0.003
						l-5.411-312.458c-0.541-0.162-1.007-0.348-1.374-0.557C173.108,23.95,172.837,23.611,172.829,23.278"/>
					<path fill="#8A080A" d="M175.046,24.827l5.411,312.458c0.001,0,0.001,0,0.002,0l-4.78-312.287
						C175.458,24.944,175.247,24.887,175.046,24.827"/>
					<path fill="#8E090C" d="M175.679,24.997l4.78,312.287c0.001,0.001,0.002,0.001,0.002,0.001l-4.248-312.169
						C176.03,25.078,175.852,25.039,175.679,24.997"/>
					<path fill="#910B0E" d="M176.214,25.116l4.248,312.169c0.001,0,0.001,0,0.002,0l-3.75-312.075
						C176.544,25.181,176.377,25.149,176.214,25.116"/>
					<path fill="#950C10" d="M176.714,25.21l3.75,312.075c0,0,0.001,0.001,0.002,0.001l-3.272-311.999
						C177.031,25.263,176.871,25.237,176.714,25.21"/>
					<path fill="#980E11" d="M177.193,25.288l3.272,311.999c0.001,0,0.001,0,0.002,0l-2.806-311.934
						C177.504,25.332,177.347,25.311,177.193,25.288"/>
					<path fill="#9C0F13" d="M177.662,25.353l2.806,311.934c0.001,0,0.001,0,0.002,0l-2.341-311.879
						C177.972,25.39,177.816,25.372,177.662,25.353"/>
					<path fill="#9F1014" d="M178.129,25.407l2.341,311.879c0.001,0,0.001,0,0.002,0l-1.875-311.833
						C178.439,25.439,178.284,25.424,178.129,25.407"/>
					<path fill="#A31216" d="M178.597,25.453l1.875,311.833c0,0,0.001,0.001,0.002,0.001l-1.405-311.796
						C178.911,25.48,178.753,25.467,178.597,25.453"/>
					<path fill="#A61317" d="M179.069,25.491l1.405,311.796c0,0,0.001,0,0.002,0l-0.93-311.766
						C179.386,25.512,179.227,25.502,179.069,25.491"/>
					<path fill="#AA1418" d="M179.546,25.521l0.93,311.766c0.001,0,0.001,0,0.002,0L180.03,25.543
						C179.868,25.537,179.707,25.53,179.546,25.521"/>
					<path fill="#AE151A" d="M180.03,25.543l0.449,311.744c0,0,0.001,0,0.002,0l0.04-311.73
						C180.356,25.554,180.192,25.549,180.03,25.543"/>
					<path fill="#B1161B" d="M180.52,25.557l-0.04,311.73c0.001,0,0.001,0,0.002,0l0.537-311.724
						C180.852,25.562,180.686,25.561,180.52,25.557"/>
					<path fill="#B5171C" d="M181.02,25.563l-0.537,311.724c0.001,0,0.002,0,0.002,0l1.046-311.727
						C181.36,25.563,181.189,25.563,181.02,25.563"/>
					<path fill="#B8181D" d="M181.531,25.561l-1.046,311.727c0.001,0,0.001,0,0.002,0l1.605-311.74
						C181.906,25.554,181.719,25.558,181.531,25.561"/>
					<path fill="#BC181E" d="M182.093,25.547l-1.605,311.74c0.001,0,0.002,0,0.003,0l2.268-311.77
						C182.537,25.53,182.314,25.54,182.093,25.547"/>
					<path fill="#C0191F" d="M182.758,25.518l-2.268,311.77c0.002,0,0.004-0.001,0.006-0.001l3.533-311.871
						C183.61,25.459,183.186,25.493,182.758,25.518"/>
					<path fill="#C31A20" d="M184.029,25.415l-3.533,311.871c0.001,0,0.002,0,0.003,0l0,0l4.308-311.967
						c-0.037,0.005-0.076,0.011-0.115,0.016C184.473,25.365,184.252,25.391,184.029,25.415"/>
					<path fill="#C0191F" d="M184.807,25.319l-4.308,311.967c0.003-0.001,0.005-0.001,0.007-0.001l5.816-312.239
						C185.863,25.15,185.357,25.243,184.807,25.319"/>
					<path fill="#BC181E" d="M186.322,25.046l-5.816,312.239c0.001-0.001,0.002-0.001,0.003-0.001L187.01,24.87
						C186.794,24.932,186.564,24.991,186.322,25.046"/>
					<path fill="#B8181D" d="M187.01,24.87l-6.501,312.414c0.001-0.001,0.001-0.001,0.002-0.001l6.982-312.566
						C187.341,24.77,187.18,24.821,187.01,24.87"/>
					<path fill="#B5171C" d="M187.493,24.717l-6.982,312.566c0,0,0.001,0,0.001-0.001l7.356-312.706
						C187.751,24.625,187.625,24.672,187.493,24.717"/>
					<path fill="#B1161B" d="M187.869,24.577l-7.356,312.706c0,0,0.001,0,0.001,0l7.661-312.839
						C188.079,24.488,187.977,24.533,187.869,24.577"/>
					<path fill="#AE151A" d="M188.175,24.443l-7.661,312.839c0,0,0-0.001,0.001-0.001l7.915-312.969
						C188.351,24.356,188.265,24.4,188.175,24.443"/>
					<path fill="#AA1418" d="M188.43,24.312l-7.915,312.969c0,0,0,0,0.001,0l8.129-313.098
						C188.578,24.227,188.507,24.27,188.43,24.312"/>
					<path fill="#A61317" d="M188.646,24.183l-8.129,313.098c0-0.001,0-0.001,0.001-0.001l8.309-313.226
						C188.771,24.098,188.711,24.141,188.646,24.183"/>
					<path fill="#A31216" d="M188.826,24.054l-8.309,313.226c0,0,0,0,0-0.001l8.461-313.355
						C188.933,23.968,188.882,24.011,188.826,24.054"/>
					<path fill="#9F1014" d="M188.979,23.924l-8.461,313.355h0l8.583-313.489C189.065,23.835,189.024,23.879,188.979,23.924"/>
					<path fill="#9C0F13" d="M189.102,23.79l-8.583,313.489c0,0,0,0,0-0.001l8.679-313.626
						C189.171,23.699,189.139,23.745,189.102,23.79"/>
					<path fill="#980E11" d="M189.197,23.652l-8.679,313.626l0,0l8.746-313.769C189.248,23.557,189.226,23.605,189.197,23.652"/>
					<path fill="#950C10" d="M189.265,23.509l-8.746,313.769c0-0.001,0-0.001,0-0.001L189.3,23.356
						C189.294,23.407,189.282,23.458,189.265,23.509"/>
					<path fill="#910B0E" d="M189.3,23.356l-8.781,313.921l0,0l8.784-313.972C189.303,23.322,189.302,23.339,189.3,23.356"/>
				</g>
			</g>
			<g enable-background="new    ">
				<defs>
					<path id="SVGID_17_" enable-background="new    " d="M95.198,323.219c-2.994-1.732-6.979-4.065-9.836-6.014
						c-4.434-3.023-10.237-7.222-14.449-10.547c-5.857-4.622-12.962-11.639-18.191-16.962c-3.403-3.464-7.643-8.396-10.469-12.345
						c-2.63-3.676-6.204-8.533-8.657-12.329c-2.101-3.251-4.641-7.751-6.509-11.141c-2.125-3.857-4.582-9.204-6.312-13.254
						c-1.536-3.595-3.196-8.543-4.563-12.205c-1.533-4.104-3.002-9.784-3.889-14.074c-1.613-7.803-3.047-18.365-3.583-26.314
						c-0.424-6.288-0.35-14.746,0.393-21.004c0.51-4.301,0.919-10.086,1.82-14.323c0.816-3.835,1.743-8.986,2.727-12.781
						c1.068-4.123,2.551-9.625,4.107-13.59c1.401-3.569,3.133-8.385,4.694-11.887c1.732-3.886,4.23-8.987,6.274-12.718
						c1.805-3.294,4.364-7.607,6.433-10.742c2.386-3.616,5.627-8.419,8.405-11.744c2.342-2.802,5.376-6.62,7.857-9.299
						c3.088-3.334,7.333-7.669,10.692-10.73c2.549-2.322,6.007-5.361,8.737-7.466c3.988-3.076,9.442-7.004,13.637-9.791
						c2.488-1.652,5.883-3.747,8.524-5.139c5.151-2.715,12.114-6.166,17.431-8.541c2.245-1.003,5.309-2.182,7.633-2.984
						c3.845-1.328,9.001-3.027,12.92-4.115c1.917-0.532,4.48-1.227,6.423-1.657c3.724-0.825,8.705-1.859,12.459-2.528
						c3.42-0.609,10.583-1.533,15.049-1.858c3.621-0.263,6.238-0.454,8.828-0.521c5.969-0.156,6.44-0.157,12.614-0.039
						c3.355,0.064,8.437,0.434,8.485,0.438c4.029,0.303,5.769,0.504,8.927,0.869c7.604,0.88,15.093,2.464,15.161,2.479
						c3.6,0.8,8.381,1.953,11.942,2.907c2.317,0.621,5.366,1.596,7.647,2.339c2.649,0.864,6.143,2.139,8.735,3.159
						c2.627,1.033,6.077,2.536,8.656,3.681c4.031,1.791,9.222,4.578,13.09,6.699c-23.131-13.141-50.816-18.871-80.583-14.868
						c-2.002-1.138-6.937-1.615-11.02-1.066c-4.084,0.549-5.771,1.917-3.769,3.054s6.936,1.615,11.02,1.066
						c4.084-0.549,5.771-1.917,3.769-3.054c29.767-4.003,57.452,1.727,80.583,14.868c5.799,3.558,13.572,8.3,18.917,12.51
						c3.677,2.896,8.476,6.891,11.948,10.028c2.706,2.446,6.172,5.871,8.628,8.567c3.056,3.355,7.009,7.943,9.824,11.502
						c2.32,2.934,5.208,7.007,7.278,10.121c2.403,3.612,5.367,8.59,7.459,12.391c1.836,3.334,3.981,7.939,5.624,11.374
						c0.052,0.107,5.184,10.917,8.986,25.623c1.076,4.16,2.264,9.772,2.991,14.007c0.672,3.916,1.17,9.195,1.668,13.136
						c0.55,4.357,0.805,10.239,0.615,14.627c-0.347,8.007-1.065,18.704-2.396,26.606c-0.772,4.582-2.058,10.671-3.502,15.086
						c-1.217,3.722-2.705,8.731-4.105,12.388c-1.551,4.051-3.701,9.44-5.721,13.279c-1.802,3.424-4.111,8.044-6.085,11.373
						c-2.222,3.748-5.369,8.642-7.887,12.199c-4.448,6.282-10.57,13.922-17.62,21.05c-6.333,6.403-12.607,12.027-20.707,18.069
						c-2.787,2.078-6.572,4.763-9.51,6.621c-4.009,2.536-9.485,5.708-13.629,8.016c-6.861,3.821-17.474,8.133-19.285,8.802
						c-3.727,1.375-8.729,3.129-12.531,4.274c-3.657,1.103-8.592,2.381-12.319,3.215c-10.253,2.295-20.343,3.6-30.847,3.989
						c-6.826,0.253-12.527,0.005-14.662-0.113c-1.539-0.086-4.403-0.244-7.648-0.566c-4.413-0.437-7.357-0.863-8.418-1.025
						c-7.908-1.214-11.937-2.171-15.493-3.016c-6.886-1.636-13.511-3.868-13.572-3.89c-2.705-0.936-6.309-2.197-8.973-3.244
						c-2.691-1.059-6.231-2.594-8.873-3.77C104.889,328.461,99.281,325.582,95.198,323.219z"/>
				</defs>
				<clipPath id="SVGID_18_">
					<use xlink:href="#SVGID_17_"  overflow="visible"/>
				</clipPath>
				<g clip-path="url(#SVGID_18_)" enable-background="new    ">
					<path fill="#9C0F13" d="M95.198,323.219c-43.906-25.409-62.125-58.473-68.112-69.337
						c-8.625-15.652-13.646-34.297-14.427-38.074c-1.704-8.24-3.313-19.381-3.92-27.773c-0.455-6.286-0.35-14.746,0.393-21.004
						c0.971-8.188,2.518-19.112,4.546-27.104c1.99-7.838,5.847-17.95,8.801-25.477c3.333-8.492,13.494-26.088,21.112-35.204
						c7.752-9.275,10.961-13.115,18.55-20.029c4.097-3.733,9.708-8.845,22.375-17.257c6.122-4.065,22.908-14.228,46.509-20.779
						c23.473-6.515,47.281-8.248,72.786-5.297c33.528,3.879,56.562,16.51,65.232,21.265c-23.131-13.141-50.816-18.871-80.583-14.868
						c-2.002-1.138-6.937-1.615-11.02-1.066c-4.084,0.549-5.771,1.917-3.769,3.054s6.936,1.615,11.02,1.066
						c4.084-0.549,5.771-1.917,3.769-3.054c29.767-4.003,57.452,1.727,80.583,14.868c5.799,3.558,13.572,8.3,18.917,12.51
						c4.814,3.792,12.872,10.138,20.576,18.596c15.006,16.473,22.186,28.66,30.186,45.387c3.515,7.349,6.947,17.736,8.986,25.623
						c2.069,7.999,3.624,18.946,4.659,27.144c0.227,1.794,2.1,18.193-1.781,41.233c-2.439,14.481-11.7,51.788-44.92,85.375
						c-16.982,17.17-46.031,39.608-87.981,48.997C159.1,355.125,112.51,333.238,95.198,323.219"/>
					<path fill="#9C0F13" d="M269.043,37.149c10.733,6.339,19.225,12.06,30.865,22.539l8.628,8.567
						c2.978,3.425,7.007,7.945,9.824,11.502l7.278,10.121c2.26,3.704,5.365,8.591,7.459,12.391l5.624,11.374
						c1.591,3.968,3.828,9.216,5.244,13.25l3.742,12.373c0.914,4.199,2.262,9.773,2.991,14.007l1.668,13.136
						c0.2,4.388,0.607,10.235,0.615,14.627l-0.62,13.438c-0.628,4.648-1.346,10.868-2.21,15.479l-3.068,12.776
						c-1.374,4.146-3.081,9.718-4.645,13.794l-5.182,11.873c-2.072,3.873-4.733,9.098-6.977,12.875l-6.995,10.697
						c-2.739,3.57-6.316,8.394-9.208,11.842l-8.412,9.208c-3.429,3.259-7.963,7.65-11.533,10.754l-9.174,7.315
						c-4.284,2.982-10.016,6.938-14.439,9.71l-8.699,4.927c-11.546,5.722-11.997,5.945-19.285,8.802l-6.261,2.271
						c-8.18,2.614-17.45,5.576-32.954,7.802l-4.414,0.536c-1.292,0.123-3.015,0.304-4.309,0.41l-3.929,0.278
						c-1.153,0.055-2.691,0.139-3.846,0.182l-3.688,0.092c-1.096,0.003-2.556,0.011-3.651,0.011l-3.647-0.068
						c-1.098-0.044-2.563-0.097-3.661-0.147l-3.785-0.237c-1.159-0.099-2.705-0.217-3.863-0.329l-4.124-0.449
						c-1.289-0.173-3.008-0.387-4.294-0.576l-4.727-0.764c-1.52-0.29-3.55-0.656-5.064-0.97l-5.701-1.282
						c-1.93-0.505-4.51-1.15-6.429-1.692l-7.143-2.197c-2.697-0.96-6.303-2.212-8.973-3.244l-8.873-3.77
						c-4.234-2.08-9.862-4.896-14.001-7.16l-9.836-6.014c-4.389-3.089-10.22-7.243-14.449-10.547l-9.358-8.129
						c-3.38-3.381-7.933-7.848-11.157-11.378l-8.145-9.8c-2.622-3.682-6.202-8.535-8.657-12.329l-6.509-11.141
						c-1.915-3.966-4.58-9.205-6.312-13.254l-4.563-12.205c-1.187-4.217-2.902-9.807-3.889-14.074l-2.356-13.012
						c-0.576-6.248-1.256-14.597-1.4-20.87l0.566-13.437c0.531-4.299,1.102-10.051,1.82-14.323l2.727-12.781
						c1.216-4.082,2.715-9.564,4.107-13.59l4.694-11.887c1.865-3.824,4.247-8.978,6.274-12.718l6.433-10.742
						c2.5-3.538,5.753-8.318,8.405-11.744l7.857-9.299c3.178-3.249,7.37-7.629,10.692-10.73l8.737-7.466
						c4.043-3.003,9.449-6.994,13.637-9.791l8.524-5.139c11.332-5.956,11.774-6.188,18.692-9.065l6.372-2.459
						c11.546-3.922,19.81-6.492,37.175-9.109l4.879-0.591c1.439-0.138,3.357-0.338,4.799-0.458l4.449-0.314
						c1.313-0.062,3.064-0.161,4.379-0.208l4.233-0.105c1.258-0.004,2.937-0.013,4.195-0.013l4.186,0.079
						c1.258,0.051,2.935,0.115,4.191,0.169l4.294,0.268c1.307,0.111,3.049,0.245,4.354,0.371l4.573,0.498
						c1.413,0.189,3.301,0.425,4.713,0.632l5.078,0.82c1.611,0.307,3.764,0.696,5.37,1.027l5.905,1.328
						c1.963,0.514,4.589,1.17,6.542,1.722l7.143,2.197c2.625,0.936,6.137,2.152,8.735,3.159l8.656,3.681
						C259.91,32.401,265.244,34.905,269.043,37.149c-8.018-4.555-16.582-8.22-25.591-10.897c-0.294-0.097-0.686-0.226-0.979-0.323
						c-127.406-36.01-195.479,77.903-141.986,176.66c53.624,99,215.468,113.652,247.31-3.404
						c16.239-59.697-22.62-145.4-104.345-172.933C252.461,28.929,261.025,32.594,269.043,37.149"/>
					<g>
						<path fill="#980E11" d="M343.966,126.892c1.799,5.378,4.517,13.504,6.733,26.38l1.668,13.136
							c0.2,4.388,0.607,10.235,0.615,14.627l-0.62,13.438c-0.628,4.648-1.346,10.868-2.21,15.479l-3.068,12.776
							c-1.374,4.146-3.081,9.718-4.645,13.794l-5.182,11.873c-2.072,3.873-4.733,9.098-6.977,12.875l-6.995,10.697
							c-2.739,3.57-6.316,8.394-9.208,11.842l-8.412,9.208c-3.429,3.259-7.963,7.65-11.533,10.754l-9.174,7.315
							c-4.284,2.982-10.016,6.938-14.439,9.71l-8.699,4.927c-11.546,5.722-11.997,5.945-19.285,8.802l-6.261,2.271
							c-8.18,2.614-17.45,5.576-32.954,7.802l-4.414,0.536c-1.292,0.123-3.015,0.304-4.309,0.41l-3.929,0.278
							c-1.153,0.055-2.691,0.139-3.846,0.182l-3.688,0.092c-1.096,0.003-2.556,0.011-3.651,0.011l-3.647-0.068
							c-1.098-0.044-2.563-0.097-3.661-0.147l-3.785-0.237c-1.159-0.099-2.705-0.217-3.863-0.329l-4.124-0.449
							c-1.289-0.173-3.008-0.387-4.294-0.576l-4.727-0.764c-1.52-0.29-3.55-0.656-5.064-0.97l-5.701-1.282
							c-1.93-0.505-4.51-1.15-6.429-1.692l-7.143-2.197c-2.697-0.96-6.303-2.212-8.973-3.244l-8.873-3.77
							c-4.234-2.08-9.862-4.896-14.001-7.16l-9.836-6.014c-4.389-3.089-10.22-7.243-14.449-10.547l-9.358-8.129
							c-3.38-3.381-7.933-7.848-11.157-11.378l-8.145-9.8c-2.622-3.682-6.202-8.535-8.657-12.329l-6.509-11.141
							c-1.915-3.966-4.58-9.205-6.312-13.254l-4.563-12.205c-1.187-4.217-2.902-9.807-3.889-14.074l-2.356-13.012
							c-0.576-6.248-1.256-14.597-1.4-20.87l0.566-13.437c0.531-4.299,1.102-10.051,1.82-14.323l2.727-12.781
							c1.216-4.082,2.715-9.564,4.107-13.59l4.694-11.887c1.865-3.824,4.247-8.978,6.274-12.718l6.433-10.742
							c2.5-3.538,5.753-8.318,8.405-11.744l7.857-9.299c3.178-3.249,7.37-7.629,10.692-10.73l8.737-7.466
							c4.043-3.003,9.449-6.994,13.637-9.791l8.524-5.139c11.332-5.956,11.774-6.188,18.692-9.065l6.372-2.459
							c11.546-3.922,19.81-6.492,37.175-9.109l4.879-0.591c1.439-0.138,3.357-0.338,4.799-0.458l4.449-0.314
							c1.313-0.062,3.064-0.161,4.379-0.208l4.233-0.105c1.258-0.004,2.937-0.013,4.195-0.013l4.186,0.079
							c1.258,0.051,2.935,0.115,4.191,0.169l4.294,0.268c1.307,0.111,3.049,0.245,4.354,0.371l4.573,0.498
							c1.413,0.189,3.301,0.425,4.713,0.632l5.078,0.82c1.611,0.307,3.764,0.696,5.37,1.027l5.905,1.328
							c1.963,0.514,4.589,1.17,6.542,1.722l7.143,2.197c2.625,0.936,6.137,2.152,8.735,3.159l8.656,3.681
							c3.957,1.951,9.222,4.578,13.09,6.699c-0.946-0.538-1.9-1.063-2.861-1.575c-2.994-1.484-6.986-3.462-9.98-4.946
							C131.949-23.526,41.235,85.611,86.381,189.672c49.638,114.415,215.855,131.847,257.758,27.031
							c15.869-39.697,3.71-80-2.255-95.485C342.509,122.92,343.391,125.172,343.966,126.892"/>
						<path fill="#980E11" d="M269.043,37.149c2.526,1.485,5.845,3.55,8.35,5.072c-2.994-1.793-6.986-4.184-9.98-5.977
							c-0.369-0.202-0.86-0.47-1.23-0.67C267.143,36.086,268.097,36.611,269.043,37.149"/>
					</g>
					<path fill="#950C10" d="M350.699,153.272c1.163,7.832,2.262,15.229,2.283,27.763l-0.62,13.438
						c-0.628,4.648-1.346,10.868-2.21,15.479l-3.068,12.776c-1.374,4.146-3.081,9.718-4.645,13.794l-5.182,11.873
						c-2.072,3.873-4.733,9.098-6.977,12.875l-6.995,10.697c-2.739,3.57-6.316,8.394-9.208,11.842l-8.412,9.208
						c-3.429,3.259-7.963,7.65-11.533,10.754l-9.174,7.315c-4.284,2.982-10.016,6.938-14.439,9.71l-8.699,4.927
						c-11.546,5.722-11.997,5.945-19.285,8.802l-6.261,2.271c-8.18,2.614-17.45,5.576-32.954,7.802l-4.414,0.536
						c-1.292,0.123-3.015,0.304-4.309,0.41l-3.929,0.278c-1.153,0.055-2.691,0.139-3.846,0.182l-3.688,0.092
						c-1.096,0.003-2.556,0.011-3.651,0.011l-3.647-0.068c-1.098-0.044-2.563-0.097-3.661-0.147l-3.785-0.237
						c-1.159-0.099-2.705-0.217-3.863-0.329l-4.124-0.449c-1.289-0.173-3.008-0.387-4.294-0.576l-4.727-0.764
						c-1.52-0.29-3.55-0.656-5.064-0.97l-5.701-1.282c-1.93-0.505-4.51-1.15-6.429-1.692l-7.143-2.197
						c-2.697-0.96-6.303-2.212-8.973-3.244l-8.873-3.77c-4.234-2.08-9.862-4.896-14.001-7.16l-9.836-6.014
						c-4.389-3.089-10.22-7.243-14.449-10.547l-9.358-8.129c-3.38-3.381-7.933-7.848-11.157-11.378l-8.145-9.8
						c-2.622-3.682-6.202-8.535-8.657-12.329l-6.509-11.141c-1.915-3.966-4.58-9.205-6.312-13.254l-4.563-12.205
						c-1.187-4.217-2.902-9.807-3.889-14.074l-2.356-13.012c-0.576-6.248-1.256-14.597-1.4-20.87l0.566-13.437
						c0.531-4.299,1.102-10.051,1.82-14.323l2.727-12.781c1.216-4.082,2.715-9.564,4.107-13.59l4.694-11.887
						c1.865-3.824,4.247-8.978,6.274-12.718l6.433-10.742c2.5-3.538,5.753-8.318,8.405-11.744l7.857-9.299
						c3.178-3.249,7.37-7.629,10.692-10.73l8.737-7.466c4.043-3.003,9.449-6.994,13.637-9.791l8.524-5.139
						c11.332-5.956,11.774-6.188,18.692-9.065l6.372-2.459c11.546-3.922,19.81-6.492,37.175-9.109l4.879-0.591
						c1.439-0.138,3.357-0.338,4.799-0.458l4.449-0.314c1.313-0.062,3.064-0.161,4.379-0.208l4.233-0.105
						c1.258-0.004,2.937-0.013,4.195-0.013l4.186,0.079c1.258,0.051,2.935,0.115,4.191,0.169l4.294,0.268
						c1.307,0.111,3.049,0.245,4.354,0.371l4.573,0.498c1.413,0.189,3.301,0.425,4.713,0.632l5.078,0.82
						c1.611,0.307,3.764,0.696,5.37,1.027l5.905,1.328c1.963,0.514,4.589,1.17,6.542,1.722l7.143,2.197l4.179,1.444l-8.889-2.907
						C106.434-14.183,32.39,104.286,85.856,205.072c58.56,110.39,224.018,117.735,260.353,11.559
						c9.005-26.313,6.815-49.115,4.385-63.978C350.617,152.84,350.671,153.086,350.699,153.272"/>
					<path fill="#910B0E" d="M352.982,181.035c-0.173,8.03-0.336,15.614-2.83,28.916l-3.068,12.776
						c-1.374,4.146-3.081,9.718-4.645,13.794l-5.182,11.873c-2.072,3.873-4.733,9.098-6.977,12.875l-6.995,10.697
						c-2.739,3.57-6.316,8.394-9.208,11.842l-8.412,9.208c-3.429,3.259-7.963,7.65-11.533,10.754l-9.174,7.315
						c-4.284,2.982-10.016,6.938-14.439,9.71l-8.699,4.927c-11.546,5.722-11.997,5.945-19.285,8.802l-6.261,2.271
						c-8.18,2.614-17.45,5.576-32.954,7.802l-4.414,0.536c-1.292,0.123-3.015,0.304-4.309,0.41l-3.929,0.278
						c-1.153,0.055-2.691,0.139-3.846,0.182l-3.688,0.092c-1.096,0.003-2.556,0.011-3.651,0.011l-3.647-0.068
						c-1.098-0.044-2.563-0.097-3.661-0.147l-3.785-0.237c-1.159-0.099-2.705-0.217-3.863-0.329l-4.124-0.449
						c-1.289-0.173-3.008-0.387-4.294-0.576l-4.727-0.764c-1.52-0.29-3.55-0.656-5.064-0.97l-5.701-1.282
						c-1.93-0.505-4.51-1.15-6.429-1.692l-7.143-2.197c-2.697-0.96-6.303-2.212-8.973-3.244l-8.873-3.77
						c-4.234-2.08-9.862-4.896-14.001-7.16l-9.836-6.014c-4.389-3.089-10.22-7.243-14.449-10.547l-9.358-8.129
						c-3.38-3.381-7.933-7.848-11.157-11.378l-8.145-9.8c-2.622-3.682-6.202-8.535-8.657-12.329l-6.509-11.141
						c-1.915-3.966-4.58-9.205-6.312-13.254l-4.563-12.205c-1.187-4.217-2.902-9.807-3.889-14.074l-2.356-13.012
						c-0.576-6.248-1.256-14.597-1.4-20.87l0.566-13.437c0.531-4.299,1.102-10.051,1.82-14.323l2.727-12.781
						c1.216-4.082,2.715-9.564,4.107-13.59l4.694-11.887c1.865-3.824,4.247-8.978,6.274-12.718l6.433-10.742
						c2.5-3.538,5.753-8.318,8.405-11.744l7.857-9.299c3.178-3.249,7.37-7.629,10.692-10.73l8.737-7.466
						c4.043-3.003,9.449-6.994,13.637-9.791l8.524-5.139c11.332-5.956,11.774-6.188,18.692-9.065l6.372-2.459
						c11.546-3.922,19.81-6.492,37.175-9.109l4.879-0.591c1.439-0.138,3.357-0.338,4.799-0.458l4.449-0.314
						c1.313-0.062,3.064-0.161,4.379-0.208l4.233-0.105c1.258-0.004,2.937-0.013,4.195-0.013l4.186,0.079
						c1.258,0.051,2.935,0.115,4.191,0.169l4.294,0.268c1.307,0.111,3.049,0.245,4.354,0.371l4.573,0.498
						c1.413,0.189,3.301,0.425,4.713,0.632l5.078,0.82l1.377,0.247l-1.424-0.255C70.601-5.053,25.777,137.567,88.801,224.188
						c79.373,109.09,243.702,94.903,262.438-22.656c1.758-11.033,1.745-18.279,1.738-22.172
						C352.956,179.862,352.993,180.533,352.982,181.035"/>
					<path fill="#8E090C" d="M350.152,209.951c-1.069,5.205-2.859,13.916-7.713,26.57l-5.182,11.873
						c-2.072,3.873-4.733,9.098-6.977,12.875l-6.995,10.697c-2.739,3.57-6.316,8.394-9.208,11.842l-8.412,9.208
						c-3.429,3.259-7.963,7.65-11.533,10.754l-9.174,7.315c-4.284,2.982-10.016,6.938-14.439,9.71l-8.699,4.927
						c-11.546,5.722-11.997,5.945-19.285,8.802l-6.261,2.271c-8.18,2.614-17.45,5.576-32.954,7.802l-4.414,0.536
						c-1.292,0.123-3.015,0.304-4.309,0.41l-3.929,0.278c-1.153,0.055-2.691,0.139-3.846,0.182l-3.688,0.092
						c-1.096,0.003-2.556,0.011-3.651,0.011l-3.647-0.068c-1.098-0.044-2.563-0.097-3.661-0.147l-3.785-0.237
						c-1.159-0.099-2.705-0.217-3.863-0.329l-4.124-0.449c-1.289-0.173-3.008-0.387-4.294-0.576l-4.727-0.764
						c-1.52-0.29-3.55-0.656-5.064-0.97l-5.701-1.282c-1.93-0.505-4.51-1.15-6.429-1.692l-7.143-2.197
						c-2.697-0.96-6.303-2.212-8.973-3.244l-8.873-3.77c-4.234-2.08-9.862-4.896-14.001-7.16l-9.836-6.014
						c-4.389-3.089-10.22-7.243-14.449-10.547l-9.358-8.129c-3.38-3.381-7.933-7.848-11.157-11.378l-8.145-9.8
						c-2.622-3.682-6.202-8.535-8.657-12.329l-6.509-11.141c-1.915-3.966-4.58-9.205-6.312-13.254l-4.563-12.205
						c-1.187-4.217-2.902-9.807-3.889-14.074l-2.356-13.012c-0.576-6.248-1.256-14.597-1.4-20.87l0.566-13.437
						c0.531-4.299,1.102-10.051,1.82-14.323l2.727-12.781c1.216-4.082,2.715-9.564,4.107-13.59l4.694-11.887
						c1.865-3.824,4.247-8.978,6.274-12.718l6.433-10.742c2.5-3.538,5.753-8.318,8.405-11.744l7.857-9.299
						c3.178-3.249,7.37-7.629,10.692-10.73l8.737-7.466c4.043-3.003,9.449-6.994,13.637-9.791l8.524-5.139
						c11.332-5.956,11.774-6.188,18.692-9.065l6.372-2.459c11.546-3.922,19.81-6.492,37.175-9.109l4.879-0.591
						c1.439-0.138,3.357-0.338,4.799-0.458l4.449-0.314c1.313-0.062,3.064-0.161,4.379-0.208l4.233-0.105
						c1.258-0.004,2.937-0.013,4.195-0.013c1.064,0.018,2.483,0.042,3.548,0.061c-0.964-0.017-2.249-0.038-3.213-0.055
						C47.779,15.066,15.662,166.58,102.243,252.139c82.927,81.945,225.766,70.314,249.117-49.241
						C350.998,205.014,350.585,207.849,350.152,209.951"/>
					<path fill="#8A080A" d="M342.439,236.521c-1.612,4.101-4.966,12.633-12.158,24.748l-6.995,10.697
						c-2.739,3.57-6.316,8.394-9.208,11.842l-8.412,9.208c-3.429,3.259-7.963,7.65-11.533,10.754l-9.174,7.315
						c-4.284,2.982-10.016,6.938-14.439,9.71l-8.699,4.927c-11.546,5.722-11.997,5.945-19.285,8.802l-6.261,2.271
						c-8.18,2.614-17.45,5.576-32.954,7.802l-4.414,0.536c-1.292,0.123-3.015,0.304-4.309,0.41l-3.929,0.278
						c-1.153,0.055-2.691,0.139-3.846,0.182l-3.688,0.092c-1.096,0.003-2.556,0.011-3.651,0.011l-3.647-0.068
						c-1.098-0.044-2.563-0.097-3.661-0.147l-3.785-0.237c-1.159-0.099-2.705-0.217-3.863-0.329l-4.124-0.449
						c-1.289-0.173-3.008-0.387-4.294-0.576l-4.727-0.764c-1.52-0.29-3.55-0.656-5.064-0.97l-5.701-1.282
						c-1.93-0.505-4.51-1.15-6.429-1.692l-7.143-2.197c-2.697-0.96-6.303-2.212-8.973-3.244l-8.873-3.77
						c-4.234-2.08-9.862-4.896-14.001-7.16l-9.836-6.014c-4.389-3.089-10.22-7.243-14.449-10.547l-9.358-8.129
						c-3.38-3.381-7.933-7.848-11.157-11.378l-8.145-9.8c-2.622-3.682-6.202-8.535-8.657-12.329l-6.509-11.141
						c-1.915-3.966-4.58-9.205-6.312-13.254l-4.563-12.205c-1.187-4.217-2.902-9.807-3.889-14.074l-2.356-13.012
						c-0.576-6.248-1.256-14.597-1.4-20.87l0.566-13.437c0.531-4.299,1.102-10.051,1.82-14.323l2.727-12.781
						c1.216-4.082,2.715-9.564,4.107-13.59l4.694-11.887c1.865-3.824,4.247-8.978,6.274-12.718l6.433-10.742
						c2.5-3.538,5.753-8.318,8.405-11.744l7.857-9.299c3.178-3.249,7.37-7.629,10.692-10.73l8.737-7.466
						c4.043-3.003,9.449-6.994,13.637-9.791l8.524-5.139c11.332-5.956,11.774-6.188,18.692-9.065l6.372-2.459
						c9.43-3.203,18.336-6.229,36.154-8.969l-2.957,0.441C24.686,38.772,7.343,201.207,123.186,280.11
						c96.458,65.699,197.152,25.927,222.742-53.526C344.882,229.565,343.596,233.581,342.439,236.521"/>
					<path fill="#870608" d="M330.281,261.27c-2.696,4.419-7.21,11.815-16.203,22.539l-8.412,9.208
						c-3.429,3.259-7.963,7.65-11.533,10.754l-9.174,7.315c-4.284,2.982-10.016,6.938-14.439,9.71l-8.699,4.927
						c-11.546,5.722-11.997,5.945-19.285,8.802l-6.261,2.271c-8.18,2.614-17.45,5.576-32.954,7.802l-4.414,0.536
						c-1.292,0.123-3.015,0.304-4.309,0.41l-3.929,0.278c-1.153,0.055-2.691,0.139-3.846,0.182l-3.688,0.092
						c-1.096,0.003-2.556,0.011-3.651,0.011l-3.647-0.068c-1.098-0.044-2.563-0.097-3.661-0.147l-3.785-0.237
						c-1.159-0.099-2.705-0.217-3.863-0.329l-4.124-0.449c-1.289-0.173-3.008-0.387-4.294-0.576l-4.727-0.764
						c-1.52-0.29-3.55-0.656-5.064-0.97l-5.701-1.282c-1.93-0.505-4.51-1.15-6.429-1.692l-7.143-2.197
						c-2.697-0.96-6.303-2.212-8.973-3.244l-8.873-3.77c-4.234-2.08-9.862-4.896-14.001-7.16l-9.836-6.014
						c-4.389-3.089-10.22-7.243-14.449-10.547l-9.358-8.129c-3.38-3.381-7.933-7.848-11.157-11.378l-8.145-9.8
						c-2.622-3.682-6.202-8.535-8.657-12.329l-6.509-11.141c-1.915-3.966-4.58-9.205-6.312-13.254l-4.563-12.205
						c-1.187-4.217-2.902-9.807-3.889-14.074l-2.356-13.012c-0.576-6.248-1.256-14.597-1.4-20.87l0.566-13.437
						c0.531-4.299,1.102-10.051,1.82-14.323l2.727-12.781c1.216-4.082,2.715-9.564,4.107-13.59l4.694-11.887
						c1.865-3.824,4.247-8.978,6.274-12.718l6.433-10.742c2.5-3.538,5.753-8.318,8.405-11.744l7.857-9.299
						c3.178-3.249,7.37-7.629,10.692-10.73l8.737-7.466c4.043-3.003,9.449-6.994,13.637-9.791l8.524-5.139
						c11.332-5.956,11.774-6.188,18.692-9.065l6.372-2.459c2.674-0.908,6.238-2.125,8.935-2.961l-0.212,0.062
						C1.242,62.062,7.98,233.695,137.752,300.65c63.19,32.603,151.638,31.995,196.506-46.381
						C333.065,256.369,331.539,259.208,330.281,261.27"/>
					<path fill="#9F1014" d="M231.801,24.319c116.693,26.812,160.549,180.882,67.035,235.508
						c-99.05,57.86-238.746-49.523-207.604-159.584C118.749,2.996,230.683,24.062,231.801,24.319"/>
					<path fill="#A31216" d="M261.394,35.454C365.3,84.51,378.533,226.657,282.527,262.465
						c-109.256,40.751-226.67-81.037-176.947-183.539C133.35,21.681,217.752,14.851,261.394,35.454"/>
					<path fill="#A61317" d="M275.568,44.217c98.676,60.148,91.401,198.841-11.446,218.236
						C151.479,283.696,55.283,154.17,119.149,67.252C149.469,25.99,226.947,14.58,275.568,44.217"/>
					<path fill="#AA1418" d="M288.373,54.35c84.593,65.212,70.814,184.576-23.399,202.729
						C147.411,279.729,67.567,143.975,124.88,68.518C155.31,28.455,233.356,13.539,288.373,54.35"/>
					<path fill="#AE151A" d="M299.745,65.806c76.86,73.92,43.58,186.389-55.641,188.034
						C130.328,255.726,74.565,121.574,139.542,59.851C167.35,33.435,244.666,12.834,299.745,65.806"/>
					<path fill="#B1161B" d="M299.283,67.783c68.072,63.825,47.655,178.976-54.773,180.945
						c-103.347,1.987-167.657-120.936-98.302-187.897C167.327,40.441,241.368,13.482,299.283,67.783"/>
					<path fill="#B5171C" d="M308.556,80.552c59.476,73.256,20.125,176.916-86.342,161.316
						C122.07,227.194,93.359,103.66,158.84,57.522C192.451,33.841,263.277,24.783,308.556,80.552"/>
					<path fill="#B8181D" d="M307.19,82.514c60.906,75.465,9.351,169.568-84.868,154.908
						c-95.27-14.824-121.588-127.456-61.042-175.044C194.541,36.237,263.751,28.69,307.19,82.514"/>
					<path fill="#BC181E" d="M314.042,96.6c46.601,77.62-15.774,148.588-91.646,136.303
						c-99.496-16.11-109.814-132.518-52.441-170.088C218.955,30.727,283.593,45.883,314.042,96.6"/>
					<path fill="#C0191F" d="M311.713,98.586c43.44,73.543-17.034,141.134-89.281,129.723
						c-86.731-13.698-114.133-116.789-43.763-164.637C212.161,40.9,278.978,43.166,311.713,98.586"/>
					<path fill="#C31A20" d="M308.856,100.63c45.175,78.23-36.126,147.354-109.685,118.012
						c-70.291-28.04-75.807-120.66-9.223-154.849C226.166,45.196,281.926,53.992,308.856,100.63"/>
					<path fill="#C71B21" d="M311.943,116.07c24.578,66.818-43.942,126.702-112.796,98.577
						c-71.605-29.249-70.012-123.065,2.546-149.825C245.319,48.733,295.808,72.201,311.943,116.07"/>
					<path fill="#CA1B22" d="M307.77,118.174c21.445,63.338-44.558,119.896-108.65,93.104
						c-66.988-28.003-64.569-114.943,3.922-140.948C249.965,52.514,295.076,80.685,307.77,118.174"/>
					<path fill="#CE1C23" d="M302.971,120.281c20.959,64.35-48.283,111.415-103.883,88.082
						c-62.96-26.422-59.432-109.688,5.635-132.978C250.984,58.828,291.74,85.798,302.971,120.281"/>
					<path fill="#D11D23" d="M297.818,122.265c19.934,60.984-45.899,105.401-98.767,83.184
						c-48.171-20.244-60.307-88.771-6.632-118.949C233.109,63.622,284.332,81.003,297.818,122.265"/>
					<path fill="#D51D24" d="M295.436,138.698c2.632,47.27-33.227,61.366-50.459,68.14c-14.095,5.54-33.275-0.382-45.967-4.301
						c-5.486-1.694-22.701-16.803-22.859-16.95c-28.92-26.971-23.306-94.576,44.846-103.279
						C262.718,76.979,293.712,107.75,295.436,138.698"/>
					<path fill="#D81E25" d="M290.482,140.138c0.486,4.113,3.613,40.721-35.716,59.263c-32.137,15.151-54.945,1.691-69.306-9.75
						c-50.792-40.47-11.683-100.379,37.083-103.183C257.993,84.429,286.565,107,290.482,140.138"/>
					<path fill="#DD1F26" d="M286.493,141.204c0.999,9.893,0.939,43.455-41.786,60.015c-7.037,2.728-38.673,7.553-64.893-18.667
						c-34.152-34.152-6.497-91.781,44.166-92.034C241.951,90.428,282.642,103.066,286.493,141.204"/>
					<path fill="#E04533" d="M282.35,142.234c4.746,56.573-63.706,75.874-99.414,40.321c-31.938-31.798-12.311-88.781,42.443-87.903
						C259.538,95.199,280.748,123.134,282.35,142.234"/>
					<path fill="#E1513B" d="M278.053,143.226c2.194,25.335-8.195,41.491-33.687,52.386c-6.246,2.669-36.253,8.733-58.308-13.069
						c-37.449-37.023-5.234-87.967,40.348-84.729C262.681,100.389,276.866,129.521,278.053,143.226"/>
					<path fill="#E25A42" d="M274.848,143.919c3.052,21.395-7.838,38.84-30.662,49.123c-6.195,2.792-15.747,4.501-22.422,3.223
						c-22.818-4.369-27.341-8.718-32.578-13.753c-40.33-38.779-2.311-86.253,38.18-81.638
						C246.752,103.083,270.819,115.683,274.848,143.919"/>
					<path fill="#E36147" d="M271.787,159.772c-0.025,0.098-6.903,14.572-8.991,16.89c-4.7,5.22-13.003,9.988-18.793,13.964
						c-5.594,3.84-15.574,2.991-22.335,3.555c-2.579,0.215-29.389-4.037-41.991-26.738c-16.034-28.883,7.684-68.644,48.627-63.469
						C256.229,107.503,278.174,135.663,271.787,159.772"/>
					<path fill="#E4674C" d="M268.666,160.345c-8.201,28.562-36.462,30.881-47.101,31.754c-7.201,0.591-16.804-3.537-22.931-7.365
						c-5.429-3.393-16.459-17.177-16.522-17.286c-16.313-28.211,6.526-66.142,47.11-60.336c1.747,0.25,20.241,8.118,20.341,8.186
						c4.08,2.744,7.029,4.726,15.138,15.67C272.409,141.369,268.716,160.172,268.666,160.345"/>
					<path fill="#E56C51" d="M265.484,160.899c-7.945,26.203-32.315,28.173-44.027,29.12c-7.218,0.583-16.7-3.918-22.877-7.696
						c-5.234-3.202-10.852-9.633-14.03-14.881c-4.05-6.686-11.835-24.303,3.294-43.462c12.838-16.256,35.305-15.61,42.162-14.102
						c6.443,1.417,14.552,5.418,20.001,9.137c1.237,0.844,11.648,12.418,11.709,12.504
						C270.443,144.07,265.69,160.218,265.484,160.899"/>
					<path fill="#E57156" d="M262.241,161.436c-0.039,0.123-4.805,12.85-18.864,21.963c-5.664,3.67-15.307,4.008-22.034,4.544
						c-0.078,0.006-16.759-4.727-22.854-8.367c-4.309-2.573-8.867-7.876-11.5-12.149c-13.408-21.771-0.38-38.12,3.901-43.492
						c4.638-5.819,22.27-15.476,39.846-11.401C231.175,112.635,273.701,125.592,262.241,161.436"/>
					<path fill="#E6755A" d="M260.271,154.006c-0.271,2.37,0.214,5.82-0.97,7.892c-3.217,5.629-8.259,12.951-13.282,17.05
						c-2.859,2.333-3.455,2.818-24.797,6.921c-0.178,0.034-21.854-2.993-31.616-18.281c-13.592-21.285-1.487-36.436,4.33-43.718
						c3.209-4.016,19.02-9.624,19.16-9.656c5.373-1.24,12.996-0.308,18.354,0.998c12.24,2.981,24.006,17.217,24.109,17.357
						C261.769,140.926,261.007,147.575,260.271,154.006"/>
					<path fill="#E7795D" d="M256.376,162.335c-2.538,5.777-8.102,12.857-13.493,16.137c-1.044,0.635-20.795,5.462-21.787,5.325
						c-0.315-0.044-31.56-4.673-35.121-31.213c-2.541-18.934,11.972-28.742,12.119-28.833c4.354-2.666,10.298-6.876,15.389-7.266
						c5.6-0.429,13.131,0.481,18.666,1.428c1.929,0.33,4.255,1.72,5.902,2.777C262.905,136.64,260.2,153.628,256.376,162.335"/>
					<path fill="#E77C61" d="M253.406,162.757c-2.111,4.585-6.475,10.33-10.832,12.878c-1.195,0.698-20.786,6.222-21.611,6.093
						c-1.634-0.256-22.649-10.257-22.742-10.34c-7.462-6.645-9.993-18.713-10.009-18.826c-1.982-14.765,7.784-24.038,7.886-24.107
						c10.145-6.96,17.714-9.673,17.765-9.683c0.123-0.024,18.065,1.146,20.099,2.403c5.112,3.161,13.287,6.832,15.833,12.276
						c1.918,4.102,5.3,9.418,5.854,13.912C256.219,151.995,255.357,158.518,253.406,162.757"/>
					<path fill="#E88064" d="M250.394,163.164c-1.611,3.354-4.738,7.687-8,9.476c-5.95,3.263-14.906,7.936-21.588,6.75
						c-7.41-1.314-17.046-5.729-22.683-10.716c-3.515-3.109-7.658-16.036-7.672-16.142c-0.021-0.154,0.021-16.808,5.859-20.713
						c2.531-1.693,15.295-10.171,17.924-10.745c5.72-1.248,13.961,0.301,19.338,2.614c4.614,1.984,10.137,6.27,13.295,10.176
						c2.866,3.544,4.376,9.693,6.163,13.886C254.869,152.066,252.425,158.936,250.394,163.164"/>
					<path fill="#E88368" d="M247.36,163.553c-1.123,2.268-3.195,5.297-5.457,6.433c-6.001,3.015-14.686,8.323-21.269,6.991
						c-6.692-1.354-15.398-5.316-20.534-9.816c-3.872-3.393-7.397-14.575-7.41-14.667c-0.014-0.104-0.002-12.211,3.825-17.283
						c3.9-5.167,12.581-8.365,18.094-11.76c5.108-3.146,14.2,1.026,19.706,3.41c10.046,4.35,12.7,11.814,16.06,21.265
						C251.955,152.569,249.453,159.327,247.36,163.553"/>
					<path fill="#E9866B" d="M244.312,163.922c-0.582,1.142-1.6,2.73-2.77,3.252c-6.121,2.731-14.557,8.911-21.087,7.394
						c-5.164-1.2-11.966-4.091-15.973-7.563c-3.947-3.421-8.864-9.381-9.553-14.559c-0.586-4.415,0.053-11.046,2.751-14.589
						c3.809-5.001,11.175-10.501,17.33-11.777c5.998-1.243,14.209,2.059,20.025,3.98c2.122,0.701,4.509,2.811,5.877,4.578
						c2.831,3.657,6.238,9.256,6.771,13.851C248.232,153.196,246.466,159.7,244.312,163.922"/>
					<path fill="#E9896E" d="M241.251,164.273c-4.476,5.019-14.488,9.643-20.981,7.892c-3.649-0.984-8.536-2.892-11.408-5.351
						c-0.11-0.095-11.578-13.586-11.69-14.426c-0.182-1.361,5.106-14.615,5.167-14.693c2.902-3.767,8.402-8.05,13.067-8.97
						c6.133-1.208,14.31,2.881,20.331,4.558c0.801,0.223,1.688,1.039,2.177,1.71c2.741,3.771,6.539,9.208,7.067,13.841
						C245.521,153.568,243.464,160.053,241.251,164.273"/>
					<path fill="#EA8C71" d="M240.209,157.796c-5.429,9.677-20.01,11.99-20.134,11.973c-2.241-0.317-5.181-1.643-6.843-3.18
						c-4.126-3.817-11.209-8.771-12.079-14.325c-0.737-4.708,3.101-10.871,5.836-14.772c1.845-2.63,5.64-5.523,8.8-6.102
						c5.199-0.953,12.133,2.412,17.126,4.15c1.436,0.5,2.91,2.067,3.942,3.184C240.802,142.989,243.052,152.729,240.209,157.796"/>
					<path fill="#EA8F74" d="M239.142,151.16c-3.053,5.517-10.186,10.652-15.009,14.712c-1.037,0.873-2.905,1.468-4.26,1.506
						c-3.202,0.089-14.485-15.122-14.509-15.278c-0.716-4.783,3.782-10.705,6.268-14.854c0.853-1.424,2.899-2.873,4.531-3.175
						c2.692-0.498,6.655,0.583,8.852,2.216c4.208,3.129,9.867,7.328,13.479,11.13C239.278,148.244,239.693,150.163,239.142,151.16"
						/>
					<path fill="#EB9277" d="M219.509,163.295c-4.529-0.255-9.303-6.902-9.939-11.393c-0.019-0.135,6.446-15.041,6.959-15.135
						c0.158-0.029,0.394,0.035,0.521,0.135c4.956,3.916,16.076,6.914,16.386,13.223
						C233.716,155.869,225.249,163.618,219.509,163.295"/>
					<path fill="#EB947A" d="M218.954,157.552c-2.35-0.114-4.835-3.554-5.187-5.879c-0.398-2.628,1.044-7.471,3.631-8.081
						c3.319-0.783,8.688,3.787,8.8,7.195C226.296,153.759,221.924,157.696,218.954,157.552"/>
					<path fill="#EC977D" d="M218.355,151.856c-0.181-0.009-0.373-0.27-0.4-0.448c-0.031-0.203,0.081-0.579,0.281-0.625
						c0.257-0.059,0.668,0.297,0.675,0.561C218.917,151.57,218.582,151.867,218.355,151.856"/>
				</g>
			</g>
		</g>
	</g>
</g>
</svg>
